<svg width="433" height="318" viewBox="0 0 433 318" fill="none" xmlns="http://www.w3.org/2000/svg">
<mask id="mask0_54_769" style="mask-type:luminance" maskUnits="userSpaceOnUse" x="0" y="23" width="433" height="290">
<path d="M0 23.5036H433V312.855H0V23.5036Z" fill="white"/>
</mask>
<g mask="url(#mask0_54_769)">
<path d="M0.736084 311.579L1.64538 311.621M35.0297 311.621L313.146 311.991M5.19598 311.579L27.1491 311.662M428.28 312.156L432.264 312.197M318.645 312.032L416.892 312.156" stroke="#231F20" stroke-width="3.34" stroke-linecap="round" stroke-linejoin="round"/>
</g>
<mask id="mask1_54_769" style="mask-type:luminance" maskUnits="userSpaceOnUse" x="0" y="23" width="433" height="290">
<path d="M0 23.5036H433V312.855H0V23.5036Z" fill="white"/>
</mask>
<g mask="url(#mask1_54_769)">
<path d="M120.634 184.268C117.559 181.676 119.984 157.193 125.094 150.28C130.203 143.367 133.667 140.034 135.399 133.862C137.131 127.731 159.387 110.49 177.963 124.645C194.763 137.401 193.897 163.118 167.917 177.396C151.68 186.284 169.952 217.104 169.952 217.104C169.952 217.104 148.389 224.223 133.451 223.235V190.605C128.688 187.19 123.925 187.066 120.634 184.268Z" stroke="#211F1F" stroke-width="3.34" stroke-miterlimit="10" stroke-linecap="round" stroke-linejoin="round"/>
</g>
<mask id="mask2_54_769" style="mask-type:luminance" maskUnits="userSpaceOnUse" x="0" y="23" width="433" height="290">
<path d="M0 23.5036H433V312.855H0V23.5036Z" fill="white"/>
</mask>
<g mask="url(#mask2_54_769)">
<path d="M93.0084 225.539C99.5467 220.972 106.735 215.17 134.836 210.85C162.938 206.529 184.068 209.574 195.023 214.183C202.124 217.186 213.686 231.794 217.15 247.389C217.15 247.389 210.308 258.252 191.516 262.696L187.489 253.108C187.489 253.108 189.351 301.622 185.237 311.703H110.155C110.155 311.703 103.963 282.159 102.751 276.604C102.751 276.604 85.3443 279.443 76.2513 273.147C76.2513 273.147 85.734 230.642 93.0084 225.539Z" fill="#FF6900"/>
</g>
<mask id="mask3_54_769" style="mask-type:luminance" maskUnits="userSpaceOnUse" x="0" y="23" width="433" height="290">
<path d="M0 23.5036H433V312.855H0V23.5036Z" fill="white"/>
</mask>
<g mask="url(#mask3_54_769)">
<path d="M103.357 276.933C103.314 306.436 103.487 306.765 104.873 311.621M84.3484 275.493C84.3484 275.493 83.3958 302.115 84.3484 311.621M193.031 283.722C193.031 283.722 200.652 285.656 205.372 285.574M198.227 263.148C198.227 263.148 205.502 284.751 206.671 290.676M216.154 253.849C216.154 253.849 232.478 301.128 226.156 304.625C219.834 308.123 192.642 300.305 192.642 300.305M113.403 311.621C113.403 311.621 107.254 282.118 105.998 276.604C105.998 276.604 88.6351 279.443 79.5854 273.147C79.5854 273.147 89.0248 230.765 96.2992 225.663C102.838 221.095 109.982 215.294 137.997 210.973C166.012 206.652 187.099 209.697 198.011 214.306C205.112 217.31 217.063 233.645 220.484 249.199C220.484 249.199 213.686 259.569 194.937 264.013L192.642 258.951C192.642 258.951 194.504 301.58 190.433 311.621" stroke="#211F1F" stroke-width="3.34" stroke-miterlimit="10" stroke-linecap="round" stroke-linejoin="round"/>
</g>
<mask id="mask4_54_769" style="mask-type:luminance" maskUnits="userSpaceOnUse" x="0" y="23" width="433" height="290">
<path d="M0 23.5036H433V312.855H0V23.5036Z" fill="white"/>
</mask>
<g mask="url(#mask4_54_769)">
<path d="M168.004 191.222C153.542 194.102 142.933 185.42 147.74 179.66C152.546 173.858 143.886 172.294 148.736 168.262C153.542 164.229 163.458 149.292 153.802 151.926C144.146 154.559 144.146 156.041 144.146 156.041L139.556 154.601C139.556 154.601 151.03 147.605 147.696 144.231C144.362 140.857 135.486 147.605 141.071 137.483C146.657 127.361 129.9 132.916 128.904 127.608C127.908 122.3 133.234 107.116 144.146 116.991C140.076 116.498 134.057 123.74 147.74 118.679C161.422 113.617 168.697 113.864 169.52 117.485C170.342 121.106 180.691 115.263 184.761 120.119C188.831 124.974 189.134 126.908 190.52 131.229C199.743 131.969 206.325 147.153 202.514 147.4C198.704 147.647 207.104 155.588 197.188 165.011C187.273 174.434 181.687 168.385 182.466 174.886C183.246 181.388 174.326 185.256 170.039 187.19C165.752 189.041 168.004 191.222 168.004 191.222Z" fill="#FF6900"/>
</g>
<mask id="mask5_54_769" style="mask-type:luminance" maskUnits="userSpaceOnUse" x="0" y="23" width="433" height="290">
<path d="M0 23.5036H433V312.855H0V23.5036Z" fill="white"/>
</mask>
<g mask="url(#mask5_54_769)">
<path d="M205.935 142.544C206.931 145.178 206.931 147.235 205.545 147.317C202.731 147.482 206.584 151.885 204.766 157.934M203.943 160.073C203.164 161.596 201.994 163.2 200.262 164.887C190.433 174.269 184.848 168.262 185.627 174.722C186.406 181.223 177.53 185.05 173.243 186.984C168.957 188.918 171.208 191.057 171.208 191.057C156.833 193.938 146.267 185.297 151.03 179.536C155.793 173.775 147.22 172.212 152.026 168.179C156.833 164.147 166.662 149.292 157.092 151.926C147.48 154.559 147.48 156 147.48 156L142.933 154.559C142.933 154.559 154.364 147.605 151.03 144.231C147.696 140.857 138.863 147.605 144.449 137.524C149.991 127.443 133.321 132.957 132.325 127.69C131.329 122.423 136.611 107.281 147.48 117.115C143.453 116.621 137.434 123.822 151.03 118.802C164.627 113.741 171.858 113.988 172.724 117.609C173.546 121.189 183.852 115.387 187.879 120.242C191.906 125.056 192.252 126.99 193.594 131.311C196.669 131.558 198.834 132.833 200.566 134.767M201.994 136.495C202.427 137.154 202.86 137.812 203.25 138.553" stroke="#211F1F" stroke-width="3.34" stroke-miterlimit="10" stroke-linecap="round" stroke-linejoin="round"/>
</g>
<path d="M415.843 144.26C415.843 144.137 416.363 119.587 416.363 119.587C416.363 119.587 416.363 96.1896 391.793 96.1896H281.964C281.964 96.1896 257.394 96.1896 257.394 119.587V138.699C257.394 138.699 257.394 162.096 281.964 162.096H391.749C391.749 162.096 401.828 162.055 409.095 155.876C413.291 159.707 419.044 162.096 424.971 162.096C427.436 162.096 429.772 161.684 431.935 160.902C423.889 160.202 415.541 152.128 415.843 144.26Z" fill="#FDF2E8"/>
<path d="M284.429 119.875C284.559 119.998 284.603 120.163 284.559 120.369C284.429 121.399 283.867 122.264 282.915 122.964C281.964 123.665 280.839 123.994 279.541 123.994C277.552 123.994 276.038 123.417 274.999 122.305C273.961 121.193 273.442 119.545 273.442 117.403C273.442 115.22 273.961 113.573 274.999 112.46C276.038 111.348 277.552 110.772 279.541 110.772C280.753 110.772 281.877 111.101 282.872 111.719C283.867 112.337 284.473 113.243 284.602 114.396C284.646 114.602 284.602 114.767 284.473 114.891C284.343 115.055 284.083 115.179 283.694 115.179C283.089 115.179 282.742 114.973 282.699 114.52C282.613 114.067 282.353 113.655 282.007 113.367C281.661 113.037 281.272 112.831 280.839 112.708C280.407 112.584 279.974 112.543 279.541 112.543C278.849 112.543 278.287 112.625 277.768 112.831C277.292 113.037 276.903 113.284 276.6 113.573C276.34 113.861 276.124 114.273 275.951 114.726C275.778 115.179 275.692 115.591 275.648 116.003C275.605 116.415 275.562 116.868 275.562 117.362C275.562 117.898 275.605 118.392 275.648 118.804C275.692 119.216 275.821 119.628 275.951 120.081C276.124 120.534 276.34 120.905 276.6 121.193C276.86 121.481 277.249 121.729 277.768 121.893C278.287 122.058 278.849 122.182 279.541 122.182C281.315 122.182 282.353 121.523 282.699 120.204C282.742 119.998 282.829 119.834 283.002 119.71C283.175 119.587 283.435 119.545 283.694 119.545C283.997 119.587 284.256 119.669 284.429 119.875ZM292.562 114.273C293.038 114.273 293.254 114.52 293.254 114.973C293.254 115.426 293.038 115.673 292.562 115.673H290.312V123.253C290.312 123.747 290.01 123.994 289.404 123.994C288.798 123.994 288.452 123.747 288.452 123.253V115.673H286.246C285.77 115.673 285.511 115.426 285.511 114.973C285.511 114.52 285.77 114.273 286.246 114.273H292.562ZM303.333 119.01C303.333 122.305 301.775 123.953 298.618 123.953C295.46 123.953 293.903 122.305 293.903 119.01C293.903 115.715 295.46 114.026 298.618 114.026C301.775 114.026 303.333 115.673 303.333 119.01ZM300.694 116.456C300.261 115.92 299.569 115.632 298.618 115.632C297.666 115.632 296.974 115.92 296.541 116.456C296.109 116.991 295.893 117.856 295.893 118.969C295.893 120.081 296.109 120.946 296.541 121.481C296.974 122.017 297.666 122.305 298.618 122.305C299.569 122.305 300.261 122.017 300.694 121.481C301.127 120.946 301.386 120.081 301.386 118.969C301.386 117.856 301.17 117.033 300.694 116.456ZM312.806 114.067C313.411 114.067 313.758 114.314 313.758 114.808V123.211C313.758 123.706 313.455 123.953 312.806 123.953C312.157 123.953 311.854 123.706 311.854 123.211V116.991C311.638 117.362 311.422 117.651 311.249 117.898L307.096 123.623C306.923 123.87 306.62 123.953 306.231 123.953C305.625 123.953 305.279 123.706 305.279 123.211V114.808C305.279 114.314 305.582 114.067 306.231 114.067C306.836 114.067 307.183 114.314 307.183 114.808V121.069C307.442 120.658 309.043 118.433 311.941 114.355C312.157 114.19 312.417 114.067 312.806 114.067ZM312.114 110.977C312.46 111.142 312.546 111.389 312.373 111.76C312.157 112.172 311.768 112.502 311.249 112.749C310.73 112.996 310.167 113.078 309.605 113.078C308.913 113.078 308.35 112.955 307.875 112.666C307.399 112.378 307.053 112.09 306.88 111.76C306.75 111.389 306.88 111.101 307.269 110.895C307.572 110.813 307.831 110.895 308.048 111.183C308.48 111.595 309.043 111.843 309.605 111.843C310.254 111.843 310.773 111.637 311.162 111.183C311.422 110.895 311.724 110.854 312.114 110.977ZM316.18 125.971C316.05 125.848 316.007 125.683 316.05 125.518L316.612 122.388C316.742 121.852 317.175 121.605 317.91 121.646C318.299 121.687 318.559 121.811 318.732 122.017C318.905 122.223 318.905 122.511 318.775 122.841L317.478 125.724C317.391 125.93 317.305 126.054 317.175 126.136C317.045 126.218 316.872 126.218 316.612 126.218C316.439 126.136 316.31 126.095 316.18 125.971ZM328.638 115.22C329.46 114.438 330.411 114.067 331.493 114.067C333.137 114.067 334.304 114.479 334.997 115.344C335.689 116.209 336.035 117.403 336.035 119.01C336.035 122.305 334.478 123.953 331.32 123.953C330.455 123.953 329.676 123.829 329.07 123.541C328.422 123.253 327.946 122.841 327.6 122.346C327.254 121.852 326.994 121.317 326.864 120.74C326.691 120.163 326.605 119.545 326.605 118.886C326.562 118.062 326.605 117.321 326.735 116.621C326.821 115.92 327.037 115.179 327.34 114.438C327.643 113.696 328.119 112.996 328.724 112.419C329.33 111.843 330.152 111.348 331.103 110.977C331.363 110.854 331.666 110.772 332.012 110.648C332.964 110.36 333.612 110.071 333.915 109.824C334.088 109.701 334.261 109.659 334.434 109.659C334.737 109.659 334.997 109.824 335.213 110.154C335.472 110.648 335.299 111.019 334.737 111.348C334.434 111.513 333.656 111.801 332.358 112.172L331.796 112.337C330.195 112.872 329.114 113.861 328.638 115.22ZM333.915 117.774C333.829 117.403 333.699 116.991 333.526 116.621C333.353 116.25 333.05 115.962 332.661 115.756C332.271 115.55 331.839 115.426 331.277 115.426C329.46 115.426 328.551 116.621 328.551 119.01C328.551 121.399 329.46 122.594 331.277 122.594C331.796 122.594 332.271 122.47 332.661 122.264C333.05 122.058 333.31 121.77 333.526 121.399C333.699 121.028 333.829 120.658 333.915 120.246C334.002 119.875 334.045 119.463 334.045 119.01C334.045 118.557 334.002 118.186 333.915 117.774ZM346.114 118.886C345.854 119.133 345.378 119.257 344.643 119.257H339.279C339.279 119.628 339.322 119.998 339.409 120.328C339.495 120.658 339.625 121.028 339.841 121.399C340.014 121.77 340.317 122.058 340.75 122.264C341.139 122.47 341.658 122.594 342.22 122.594C342.567 122.594 342.956 122.511 343.388 122.388C343.821 122.264 344.124 122.017 344.297 121.729C344.556 121.358 344.902 121.193 345.378 121.234C345.724 121.275 345.941 121.399 346.027 121.564C346.114 121.729 346.157 121.893 346.07 122.099C345.854 122.717 345.335 123.211 344.6 123.541C343.821 123.87 343.042 124.035 342.177 124.035C341.312 124.035 340.577 123.87 339.885 123.582C339.236 123.294 338.717 122.882 338.371 122.388C337.981 121.893 337.722 121.358 337.549 120.781C337.376 120.204 337.289 119.628 337.289 119.01C337.289 118.351 337.376 117.774 337.549 117.156C337.722 116.538 337.981 116.044 338.371 115.55C338.76 115.055 339.236 114.644 339.885 114.355C340.533 114.067 341.269 113.902 342.134 113.902C343.518 113.902 344.643 114.314 345.421 115.097C346.157 115.797 346.503 116.703 346.503 117.815C346.46 118.31 346.33 118.639 346.114 118.886ZM344.34 117.898C344.556 117.898 344.643 117.774 344.643 117.609C344.6 116.868 344.383 116.332 343.951 115.92C343.518 115.509 342.913 115.303 342.177 115.303C341.399 115.303 340.75 115.55 340.231 116.085C339.712 116.621 339.409 117.239 339.366 117.898H344.34ZM355.933 120.987C355.933 121.893 355.587 122.635 354.851 123.17C354.116 123.706 353.164 123.994 351.953 123.994C351.384 123.992 350.818 123.923 350.266 123.788C349.747 123.665 349.228 123.376 348.752 123.005C348.276 122.635 348.017 122.14 347.887 121.564C347.844 121.317 347.93 121.152 348.017 121.028C348.147 120.863 348.406 120.74 348.796 120.74C349.358 120.74 349.661 120.946 349.704 121.399C349.747 121.646 349.834 121.852 350.007 122.017C350.18 122.182 350.396 122.346 350.612 122.429C350.829 122.511 351.088 122.594 351.261 122.635C351.477 122.676 351.65 122.676 351.823 122.676C352.472 122.676 352.991 122.511 353.381 122.223C353.77 121.893 353.943 121.481 353.943 120.946C353.943 120.534 353.77 120.204 353.467 119.957C353.164 119.71 352.862 119.545 352.559 119.504C352.256 119.463 351.953 119.422 351.607 119.422H351.348C350.872 119.422 350.612 119.175 350.612 118.722C350.612 118.268 350.915 118.062 351.477 118.062C352.991 118.062 353.77 117.568 353.77 116.621C353.77 116.209 353.597 115.879 353.294 115.632C352.948 115.385 352.516 115.261 351.996 115.261C350.656 115.261 349.963 115.632 349.834 116.415C349.79 116.744 349.531 116.95 349.055 116.95C348.666 116.95 348.406 116.868 348.233 116.662C348.147 116.538 348.103 116.415 348.103 116.25C348.19 115.467 348.622 114.891 349.401 114.479C350.18 114.108 351.002 113.902 351.996 113.902C352.602 113.902 353.208 113.984 353.727 114.149C354.246 114.314 354.722 114.602 355.111 115.014C355.5 115.426 355.717 115.92 355.717 116.538C355.717 117.486 355.154 118.186 354.03 118.68C355.241 119.092 355.933 119.875 355.933 120.987ZM365.449 118.104H369.732V114.849C369.732 114.355 370.035 114.108 370.683 114.108C371.332 114.108 371.635 114.355 371.635 114.849V123.253C371.635 123.747 371.332 123.994 370.683 123.994C370.035 123.994 369.732 123.747 369.732 123.253V119.504H365.449V123.253C365.449 123.747 365.147 123.994 364.498 123.994C363.849 123.994 363.546 123.747 363.546 123.253V114.849C363.546 114.355 363.849 114.108 364.498 114.108C365.147 114.108 365.449 114.355 365.449 114.849V118.104ZM380.459 122.429C379.681 123.5 378.513 124.035 376.956 124.035C375.961 124.035 375.096 123.788 374.447 123.253C373.798 122.758 373.452 122.017 373.452 121.069C373.452 118.845 375.355 117.733 379.205 117.733H380.459C380.459 117.156 380.416 116.662 380.286 116.291C380.027 115.632 379.248 115.303 377.994 115.303C377.129 115.303 376.393 115.509 375.788 115.962C375.615 116.085 375.398 116.168 375.225 116.168C375.052 116.168 374.793 116.085 374.577 115.962C374.36 115.838 374.274 115.673 374.274 115.467C374.274 115.261 374.403 115.055 374.706 114.849C375.528 114.273 376.696 113.984 378.297 113.984C379.767 113.984 380.805 114.314 381.411 114.932C382.017 115.55 382.363 116.538 382.363 117.856V121.811C382.363 122.264 382.406 122.676 382.449 122.964C382.493 123.459 382.276 123.747 381.757 123.788C381.108 123.829 380.762 123.623 380.632 123.17C380.503 122.758 380.459 122.511 380.459 122.429ZM380.459 119.092C379.897 119.051 379.421 119.051 379.118 119.051C378.686 119.051 378.253 119.092 377.864 119.133C377.475 119.175 377.085 119.298 376.696 119.422C376.307 119.545 376.004 119.793 375.788 120.081C375.571 120.369 375.442 120.74 375.442 121.111C375.442 121.605 375.615 121.976 375.961 122.223C376.307 122.47 376.739 122.635 377.258 122.635C378.21 122.635 378.989 122.346 379.551 121.729C380.286 121.111 380.546 120.204 380.459 119.092ZM392.398 121.358C392.528 121.481 392.528 121.687 392.528 122.017C392.398 122.47 392.052 122.882 391.403 123.294C390.755 123.706 389.933 123.912 388.981 123.912C385.867 123.912 384.266 122.264 384.266 118.969C384.266 115.673 385.823 113.984 388.981 113.984C389.889 113.984 390.711 114.19 391.403 114.602C392.096 115.014 392.485 115.509 392.615 116.044C392.658 116.332 392.658 116.538 392.528 116.662C392.442 116.786 392.225 116.909 391.922 116.95H391.836C391.317 116.95 390.971 116.744 390.841 116.374C390.538 115.673 389.933 115.344 388.981 115.344C387.164 115.344 386.256 116.538 386.256 118.927C386.256 121.317 387.164 122.511 388.981 122.511C389.803 122.511 390.408 122.223 390.755 121.605C391.014 121.193 391.36 120.987 391.793 121.069C392.095 121.152 392.312 121.234 392.398 121.358ZM275.908 140.1H280.19V136.846C280.19 136.352 280.493 136.104 281.142 136.104C281.791 136.104 282.094 136.352 282.094 136.846V145.249C282.094 145.743 281.791 145.99 281.142 145.99C280.493 145.99 280.19 145.743 280.19 145.249V141.501H275.908V145.249C275.908 145.743 275.605 145.99 274.956 145.99C274.307 145.99 274.005 145.743 274.005 145.249V136.846C274.005 136.352 274.307 136.104 274.956 136.104C275.605 136.104 275.908 136.352 275.908 136.846V140.1ZM293.038 140.883C292.778 141.13 292.303 141.253 291.567 141.253H286.203C286.203 141.624 286.247 141.995 286.333 142.324C286.42 142.654 286.549 143.025 286.766 143.395C286.939 143.766 287.242 144.054 287.674 144.26C288.063 144.466 288.583 144.59 289.145 144.59C289.491 144.59 289.88 144.508 290.313 144.384C290.745 144.26 291.048 144.013 291.221 143.725C291.481 143.354 291.827 143.189 292.303 143.231C292.649 143.272 292.865 143.395 292.951 143.56C293.038 143.725 293.081 143.89 292.995 144.096C292.778 144.713 292.259 145.208 291.524 145.537C290.745 145.867 289.967 146.032 289.102 146.032C288.236 146.032 287.501 145.867 286.809 145.579C286.16 145.29 285.641 144.878 285.295 144.384C284.906 143.89 284.646 143.354 284.473 142.777C284.3 142.201 284.214 141.624 284.214 141.006C284.214 140.347 284.3 139.77 284.473 139.153C284.646 138.535 284.906 138.04 285.295 137.546C285.684 137.052 286.16 136.64 286.809 136.352C287.458 136.063 288.193 135.898 289.058 135.898C290.443 135.898 291.567 136.31 292.346 137.093C293.081 137.793 293.427 138.699 293.427 139.812C293.427 140.306 293.298 140.677 293.038 140.883ZM291.264 139.935C291.481 139.935 291.567 139.812 291.567 139.647C291.524 138.905 291.308 138.37 290.875 137.958C290.443 137.546 289.837 137.34 289.102 137.34C288.323 137.34 287.674 137.587 287.155 138.123C286.636 138.658 286.333 139.276 286.29 139.935H291.264ZM308.61 143.395C308.74 143.519 308.74 143.725 308.74 144.054C308.61 144.508 308.264 144.919 307.616 145.331C306.967 145.743 306.145 145.949 305.193 145.949C302.079 145.949 300.478 144.302 300.478 141.006C300.478 137.711 302.035 136.022 305.193 136.022C306.102 136.022 306.923 136.228 307.616 136.64C308.308 137.052 308.697 137.546 308.827 138.082C308.87 138.37 308.87 138.576 308.74 138.7C308.654 138.823 308.437 138.947 308.135 138.988H308.048C307.529 138.988 307.183 138.782 307.053 138.411C306.75 137.711 306.145 137.381 305.193 137.381C303.376 137.381 302.468 138.576 302.468 140.965C302.468 143.354 303.376 144.549 305.193 144.549C306.015 144.549 306.621 144.26 306.967 143.643C307.226 143.231 307.572 143.025 308.005 143.107C308.308 143.189 308.524 143.231 308.61 143.395ZM315.098 142.695L314.147 141.212L313.195 139.729L312.936 139.235V145.29C312.936 145.784 312.633 146.032 312.071 146.032C311.508 146.032 311.205 145.784 311.205 145.29V136.928C311.205 136.434 311.551 136.187 312.244 136.187C312.676 136.187 313.065 136.393 313.368 136.846L316.137 141.295L318.905 136.846C319.208 136.393 319.554 136.187 320.03 136.187C320.679 136.187 321.025 136.434 321.025 136.928V145.29C321.025 145.784 320.722 146.032 320.16 146.032C319.597 146.032 319.294 145.784 319.294 145.29V139.235L318.992 139.77L317.088 142.777C316.786 143.231 316.483 143.437 316.093 143.437C315.704 143.354 315.358 143.107 315.098 142.695ZM332.488 141.006C332.488 144.302 330.93 145.949 327.773 145.949C324.615 145.949 323.058 144.302 323.058 141.006C323.058 137.711 324.615 136.022 327.773 136.022C330.93 136.063 332.488 137.711 332.488 141.006ZM329.892 138.494C329.46 137.958 328.768 137.67 327.816 137.67C326.864 137.67 326.172 137.958 325.74 138.494C325.307 139.029 325.091 139.894 325.091 141.006C325.091 142.118 325.307 142.983 325.74 143.519C326.172 144.054 326.864 144.343 327.816 144.343C328.768 144.343 329.46 144.054 329.892 143.519C330.325 142.983 330.584 142.118 330.584 141.006C330.584 139.894 330.325 139.029 329.892 138.494ZM340.188 136.269C340.664 136.269 340.88 136.516 340.88 136.969C340.88 137.423 340.664 137.67 340.188 137.67H337.938V145.249C337.938 145.743 337.636 145.99 337.03 145.99C336.424 145.99 336.078 145.743 336.078 145.249V137.67H333.872C333.397 137.67 333.137 137.423 333.137 136.969C333.137 136.516 333.397 136.269 333.872 136.269H340.188ZM344.297 137.464C345.119 136.516 346.157 136.063 347.455 136.063C350.223 136.063 351.607 137.711 351.607 141.047C351.607 141.748 351.521 142.407 351.391 142.983C351.218 143.56 351.002 144.096 350.656 144.549C350.309 145.002 349.877 145.373 349.271 145.661C348.709 145.908 348.017 146.073 347.238 146.073C346.114 146.073 345.162 145.661 344.383 144.837V148.421C344.383 148.915 344.081 149.162 343.432 149.162C342.826 149.162 342.48 148.915 342.48 148.421V136.846C342.48 136.352 342.783 136.104 343.388 136.104C343.994 136.104 344.254 136.352 344.254 136.846V137.464H344.297ZM345.119 143.56C345.595 144.219 346.287 144.549 347.152 144.549C348.752 144.549 349.574 143.395 349.574 141.047C349.574 138.699 348.752 137.546 347.152 137.546C346.287 137.546 345.595 137.834 345.119 138.411C344.643 138.988 344.383 139.688 344.383 140.471V141.336C344.383 142.16 344.643 142.901 345.119 143.56ZM362.075 145.208C362.075 145.702 361.773 145.949 361.124 145.949C360.475 145.949 360.172 145.702 360.172 145.208V139.029C360.042 139.194 359.912 139.4 359.739 139.647L359.523 139.976L355.414 145.62C355.241 145.867 354.938 145.949 354.549 145.949C353.943 145.949 353.597 145.702 353.597 145.208V136.805C353.597 136.31 353.9 136.063 354.549 136.063C355.198 136.063 355.5 136.31 355.5 136.805V143.066C355.544 143.025 355.76 142.654 356.236 141.995L360.259 136.434C360.388 136.228 360.691 136.146 361.08 136.146C361.686 136.146 362.032 136.393 362.032 136.887V145.208H362.075ZM364.887 133.303C365.147 133.097 365.45 132.974 365.839 132.974C366.272 132.974 366.618 133.056 366.834 133.262C367.05 133.468 367.18 133.715 367.137 134.086L366.488 142.324C366.445 142.654 366.228 142.819 365.839 142.819C365.45 142.819 365.277 142.654 365.233 142.324C365.19 141.748 365.104 140.883 365.017 139.77C364.931 138.658 364.844 137.629 364.758 136.681C364.671 135.734 364.628 134.869 364.585 134.127C364.541 133.798 364.628 133.509 364.887 133.303ZM365.839 143.684C366.315 143.684 366.661 143.766 366.834 143.972C367.007 144.137 367.094 144.425 367.094 144.837C367.094 145.249 367.007 145.537 366.834 145.702C366.661 145.908 366.315 145.99 365.839 145.99C365.017 145.99 364.585 145.579 364.585 144.796C364.585 144.054 365.017 143.684 365.839 143.684Z" fill="#FF6900"/>
<path d="M393.826 66.2433V47.1303C393.826 47.1303 393.826 23.7334 370.683 23.7334H164.392C164.392 23.7334 141.25 23.7334 141.25 47.1303V66.2433C141.25 66.2433 141.25 66.82 141.336 67.7674V71.8042C141.596 79.713 133.723 87.7865 126.153 88.4456C128.186 89.1871 130.392 89.6402 132.728 89.6402C138.351 89.6402 143.888 87.1687 147.868 83.2555C151.285 86.8803 156.476 89.6402 164.392 89.6402H370.683C370.727 89.599 393.826 89.599 393.826 66.2433Z" fill="#FDF2E8"/>
<path d="M169.28 41.1163C170.318 42.2285 170.837 43.8762 170.837 46.0593C170.837 48.2013 170.318 49.849 169.28 50.9612C168.242 52.0733 166.728 52.65 164.738 52.65C163.44 52.65 162.272 52.3205 161.321 51.6202C160.369 50.92 159.807 50.0961 159.677 49.0251C159.634 48.8192 159.677 48.6544 159.807 48.5308C159.98 48.3249 160.239 48.2425 160.542 48.2425C160.802 48.2425 161.061 48.2837 161.234 48.4073C161.407 48.5308 161.537 48.6956 161.537 48.9016C161.883 50.2197 162.921 50.8788 164.695 50.8788C165.473 50.8788 166.122 50.7552 166.641 50.5492C167.16 50.3021 167.593 50.0137 167.853 49.5606C168.112 49.1075 168.328 48.6956 168.415 48.2013C168.545 47.7482 168.588 47.2127 168.631 46.5948H163.657C163.094 46.5948 162.835 46.3065 162.835 45.771C162.835 45.2355 163.094 44.9472 163.657 44.9472H168.588C168.545 44.4117 168.458 43.9586 168.285 43.5466C168.112 43.1347 167.939 42.7228 167.68 42.3521C167.42 41.9814 167.031 41.693 166.512 41.4871C165.993 41.2811 165.387 41.1987 164.695 41.1987C164.262 41.1987 163.83 41.2399 163.397 41.3635C162.965 41.4871 162.575 41.693 162.229 42.0226C161.883 42.3521 161.624 42.7228 161.537 43.1759C161.451 43.629 161.105 43.835 160.542 43.835C160.196 43.7938 159.937 43.7114 159.764 43.5466C159.634 43.4231 159.634 43.2171 159.634 43.0523C159.807 41.899 160.369 40.9928 161.364 40.3749C162.359 39.757 163.484 39.4275 164.695 39.4275C166.728 39.4275 168.242 40.0042 169.28 41.1163ZM180.267 42.764C180.873 42.764 181.219 43.0112 181.219 43.5055V51.9086C181.219 52.4029 180.916 52.65 180.267 52.65C179.618 52.65 179.316 52.4029 179.316 51.9086V45.6886C179.099 46.0593 178.883 46.3477 178.71 46.5948L174.557 52.3205C174.384 52.5676 174.082 52.65 173.692 52.65C173.087 52.65 172.741 52.4029 172.741 51.9086V43.5055C172.741 43.0112 173.043 42.764 173.692 42.764C174.298 42.764 174.644 43.0112 174.644 43.5055V49.7666C174.903 49.3547 176.504 47.1303 179.402 43.0523C179.618 42.8876 179.878 42.764 180.267 42.764ZM179.532 39.6746C179.878 39.8394 179.964 40.0865 179.791 40.4573C179.575 40.8692 179.186 41.1987 178.667 41.4459C178.148 41.693 177.585 41.7754 177.023 41.7754C176.331 41.7754 175.769 41.6518 175.293 41.3635C174.817 41.0751 174.471 40.7868 174.298 40.4573C174.168 40.0865 174.298 39.7982 174.687 39.5922C174.99 39.5099 175.249 39.5922 175.466 39.8806C175.898 40.2925 176.461 40.5396 177.023 40.5396C177.672 40.5396 178.191 40.3337 178.58 39.8806C178.883 39.5922 179.186 39.551 179.532 39.6746ZM183.641 54.6684C183.512 54.5448 183.468 54.3801 183.512 54.2153L184.074 51.0847C184.204 50.5492 184.636 50.3021 185.372 50.3433C185.761 50.3845 186.02 50.508 186.193 50.714C186.366 50.92 186.366 51.2083 186.237 51.5378L184.939 54.4213C184.852 54.6272 184.766 54.7508 184.636 54.8332C184.506 54.9156 184.333 54.9156 184.074 54.9156C183.901 54.8332 183.771 54.792 183.641 54.6684ZM200.382 42.97C200.857 42.97 201.074 43.2171 201.074 43.6702C201.074 44.1233 200.857 44.3705 200.382 44.3705H198.132V51.9498C198.132 52.4441 197.829 52.6912 197.224 52.6912C196.618 52.6912 196.272 52.4441 196.272 51.9498V44.3293H194.066C193.59 44.3293 193.331 44.0821 193.331 43.629C193.331 43.1759 193.547 42.9288 194.066 42.9288H200.382V42.97ZM206.74 53.3091C206.567 53.6798 206.438 53.9681 206.351 54.1741C206.265 54.3801 206.092 54.6272 205.875 54.9156C205.659 55.2039 205.399 55.4099 205.097 55.5334C204.794 55.657 204.405 55.7394 204.015 55.7394C203.756 55.7394 203.496 55.6982 203.237 55.657C203.064 55.6158 202.891 55.5334 202.761 55.3687C202.631 55.2039 202.588 54.9979 202.588 54.7508C202.631 54.2153 202.977 54.0505 203.626 54.2153C203.972 54.2565 204.275 54.2153 204.448 54.0917C204.621 53.9681 204.794 53.6798 204.924 53.3503L205.399 52.1145C205.01 51.1671 204.405 49.7666 203.626 47.913C202.847 46.0593 202.242 44.6176 201.852 43.7114C201.723 43.4643 201.766 43.2583 201.939 43.1347C202.112 43.0112 202.371 42.9288 202.718 42.9288C203.237 42.9288 203.583 43.1759 203.799 43.629L206.092 49.1899C206.135 49.3135 206.221 49.5606 206.351 49.849C206.438 49.6018 206.524 49.3547 206.611 49.1487L208.773 43.629C208.946 43.1759 209.293 42.9288 209.855 42.9288C210.201 42.9288 210.46 43.0112 210.677 43.1347C210.893 43.2583 210.936 43.4643 210.807 43.7114L206.74 53.3091ZM218.463 42.97C218.939 42.97 219.155 43.2171 219.155 43.6702C219.155 44.1233 218.939 44.3705 218.463 44.3705H216.214V51.9498C216.214 52.4441 215.911 52.6912 215.305 52.6912C214.7 52.6912 214.354 52.4441 214.354 51.9498V44.3293H212.147C211.672 44.3293 211.412 44.0821 211.412 43.629C211.412 43.1759 211.672 42.9288 212.147 42.9288H218.463V42.97ZM228.239 46.8008H232.521V43.5055C232.521 43.0112 232.824 42.764 233.473 42.764C234.079 42.764 234.425 43.0112 234.425 43.5055V51.9086C234.425 52.4029 234.122 52.65 233.473 52.65C232.867 52.65 232.521 52.4029 232.521 51.9086V48.1601H228.239V51.9086C228.239 52.4029 227.936 52.65 227.287 52.65C226.682 52.65 226.336 52.4029 226.336 51.9086V43.5055C226.336 43.0112 226.638 42.764 227.287 42.764C227.893 42.764 228.239 43.0112 228.239 43.5055V46.8008ZM243.292 51.1259C242.514 52.1969 241.346 52.7324 239.789 52.7324C238.794 52.7324 237.929 52.4852 237.28 51.9498C236.631 51.4555 236.285 50.714 236.285 49.7666C236.285 47.5422 238.188 46.4301 242.038 46.4301H243.292C243.292 45.8534 243.249 45.3591 243.119 44.9884C242.86 44.3293 242.081 43.9998 240.827 43.9998C239.962 43.9998 239.226 44.2057 238.621 44.6588C238.448 44.7824 238.231 44.8648 238.058 44.8648C237.885 44.8648 237.626 44.7824 237.409 44.6588C237.193 44.5352 237.107 44.3705 237.107 44.1645C237.107 43.9586 237.236 43.7526 237.539 43.5466C238.361 42.97 239.529 42.6816 241.129 42.6816C242.6 42.6816 243.638 43.0112 244.244 43.629C244.893 44.2469 245.196 45.2355 245.196 46.5536V50.508C245.196 50.9612 245.239 51.3731 245.282 51.6614C245.325 52.1557 245.109 52.4441 244.59 52.4852C243.941 52.5264 243.595 52.3205 243.465 51.8674C243.336 51.4555 243.292 51.2083 243.292 51.1259ZM243.292 47.7894C242.73 47.7482 242.254 47.7482 241.951 47.7482C241.519 47.7482 241.086 47.7894 240.697 47.8306C240.308 47.8718 239.918 47.9954 239.529 48.1189C239.14 48.2425 238.837 48.4897 238.621 48.778C238.404 49.0663 238.275 49.4371 238.275 49.8078C238.275 50.3021 238.448 50.6728 238.794 50.92C239.14 51.1671 239.572 51.3319 240.091 51.3319C241.043 51.3319 241.822 51.0435 242.384 50.4257C243.076 49.8078 243.379 48.9016 243.292 47.7894ZM254.755 51.9086C254.755 52.4029 254.453 52.65 253.847 52.65C253.241 52.65 252.895 52.4029 252.895 51.9086V48.6544C252.29 49.0663 251.511 49.3135 250.473 49.3135C248.224 49.3135 247.056 48.4073 247.056 46.5536V43.5055C247.056 43.0112 247.358 42.764 248.007 42.764C248.656 42.764 248.959 43.0112 248.959 43.5055V46.1005C248.959 46.8008 249.089 47.2951 249.305 47.5834C249.565 47.8718 249.997 47.9953 250.603 47.9953C251.338 47.9953 251.9 47.8306 252.29 47.5422C252.679 47.2539 252.852 46.8832 252.852 46.4713V43.5055C252.852 43.0112 253.155 42.764 253.804 42.764C254.409 42.764 254.712 43.0112 254.712 43.5055V51.9086H254.755ZM265.829 51.9086C265.829 52.4029 265.526 52.65 264.877 52.65C264.229 52.65 263.926 52.4029 263.926 51.9086V45.7298C263.796 45.8946 263.666 46.1005 263.493 46.3477L263.277 46.6772L259.168 52.3205C258.995 52.5676 258.692 52.65 258.302 52.65C257.697 52.65 257.351 52.4029 257.351 51.9086V43.5055C257.351 43.0112 257.654 42.764 258.302 42.764C258.951 42.764 259.254 43.0112 259.254 43.5055V49.7666C259.297 49.7254 259.514 49.3547 259.989 48.6956L264.012 43.1347C264.142 42.9288 264.445 42.8464 264.834 42.8464C265.44 42.8464 265.786 43.0935 265.786 43.5878V51.9086H265.829ZM270.371 46.8008H274.653V43.5055C274.653 43.0112 274.956 42.764 275.605 42.764C276.211 42.764 276.557 43.0112 276.557 43.5055V51.9086C276.557 52.4029 276.254 52.65 275.605 52.65C275 52.65 274.653 52.4029 274.653 51.9086V48.1601H270.371V51.9086C270.371 52.4029 270.068 52.65 269.419 52.65C268.814 52.65 268.468 52.4029 268.468 51.9086V43.5055C268.468 43.0112 268.771 42.764 269.419 42.764C270.025 42.764 270.371 43.0112 270.371 43.5055V46.8008ZM285.424 51.1259C284.646 52.1969 283.478 52.7324 281.921 52.7324C280.926 52.7324 280.061 52.4852 279.412 51.9498C278.763 51.4555 278.417 50.714 278.417 49.7666C278.417 47.5422 280.32 46.4301 284.17 46.4301H285.424C285.424 45.8534 285.381 45.3591 285.251 44.9884C284.992 44.3293 284.213 43.9998 282.959 43.9998C282.094 43.9998 281.358 44.2057 280.753 44.6588C280.58 44.7824 280.363 44.8648 280.19 44.8648C280.017 44.8648 279.758 44.7824 279.541 44.6588C279.325 44.5352 279.239 44.3705 279.239 44.1645C279.239 43.9586 279.368 43.7526 279.671 43.5466C280.493 42.97 281.661 42.6816 283.262 42.6816C284.732 42.6816 285.77 43.0112 286.376 43.629C287.025 44.2469 287.328 45.2355 287.328 46.5536V50.508C287.328 50.9612 287.371 51.3731 287.414 51.6614C287.457 52.1557 287.241 52.4441 286.722 52.4852C286.073 52.5264 285.727 52.3205 285.597 51.8674C285.468 51.4555 285.424 51.2083 285.424 51.1259ZM285.424 47.7894C284.862 47.7482 284.386 47.7482 284.083 47.7482C283.651 47.7482 283.218 47.7894 282.829 47.8306C282.44 47.8718 282.05 47.9954 281.661 48.1189C281.272 48.2425 280.969 48.4897 280.753 48.778C280.536 49.0663 280.407 49.4371 280.407 49.8078C280.407 50.3021 280.58 50.6728 280.926 50.92C281.272 51.1671 281.704 51.3319 282.223 51.3319C283.175 51.3319 283.954 51.0435 284.516 50.4257C285.208 49.8078 285.511 48.9016 285.424 47.7894ZM291.697 46.636H293.859C294.033 45.4415 294.508 44.4941 295.244 43.7938C296.022 43.0935 297.104 42.764 298.531 42.764C301.646 42.764 303.246 44.4117 303.246 47.707C303.246 51.0023 301.689 52.6088 298.531 52.6088C295.59 52.6088 294.032 51.0847 293.816 47.9953H291.697V51.8674C291.697 52.3617 291.394 52.6088 290.745 52.6088C290.139 52.6088 289.793 52.3617 289.793 51.8674V43.5055C289.793 43.0112 290.096 42.764 290.745 42.764C291.351 42.764 291.697 43.0112 291.697 43.5055V46.636ZM295.893 48.9428C295.979 49.3135 296.109 49.7254 296.282 50.0961C296.455 50.508 296.758 50.7964 297.147 51.0435C297.536 51.2907 297.969 51.3731 298.531 51.3731C299.05 51.3731 299.526 51.2495 299.915 51.0435C300.305 50.8376 300.564 50.508 300.781 50.1373C300.954 49.7666 301.083 49.3547 301.17 48.984C301.256 48.6132 301.3 48.1601 301.3 47.707C301.3 47.2539 301.256 46.8008 301.17 46.4301C301.083 46.0593 300.954 45.6474 300.781 45.2767C300.608 44.906 300.305 44.5764 299.915 44.3705C299.526 44.1645 299.094 44.0409 298.531 44.0409C298.012 44.0409 297.58 44.1645 297.19 44.3705C296.801 44.5764 296.541 44.906 296.325 45.2767C296.152 45.6474 295.979 46.0593 295.893 46.4301C295.806 46.842 295.763 47.2539 295.763 47.707C295.806 48.1601 295.849 48.5308 295.893 48.9428ZM310.903 42.97C311.378 42.97 311.595 43.2171 311.595 43.6702C311.595 44.1233 311.378 44.3705 310.903 44.3705H308.653V51.9498C308.653 52.4441 308.35 52.6912 307.745 52.6912C307.139 52.6912 306.793 52.4441 306.793 51.9498V44.3293H304.587C304.111 44.3293 303.852 44.0821 303.852 43.629C303.852 43.1759 304.111 42.9288 304.587 42.9288H310.903V42.97ZM325.869 51.9086C325.869 52.4029 325.567 52.65 324.961 52.65C324.355 52.65 324.009 52.4029 324.009 51.9086V48.6544C323.404 49.0663 322.625 49.3135 321.587 49.3135C319.338 49.3135 318.17 48.4073 318.17 46.5536V43.5055C318.17 43.0112 318.473 42.764 319.121 42.764C319.77 42.764 320.073 43.0112 320.073 43.5055V46.1005C320.073 46.8008 320.203 47.2951 320.419 47.5834C320.679 47.8718 321.111 47.9953 321.717 47.9953C322.452 47.9953 323.015 47.8306 323.404 47.5422C323.793 47.2539 323.966 46.8832 323.966 46.4713V43.5055C323.966 43.0112 324.269 42.764 324.918 42.764C325.523 42.764 325.826 43.0112 325.826 43.5055V51.9086H325.869ZM334.564 42.97C335.04 42.97 335.256 43.2171 335.256 43.6702C335.256 44.1233 335.04 44.3705 334.564 44.3705H332.315V51.9498C332.315 52.4441 332.012 52.6912 331.406 52.6912C330.801 52.6912 330.455 52.4441 330.455 51.9498V44.3293H328.249C327.773 44.3293 327.513 44.0821 327.513 43.629C327.513 43.1759 327.73 42.9288 328.249 42.9288H334.564V42.97ZM345.335 47.707C345.335 51.0023 343.778 52.65 340.62 52.65C337.462 52.65 335.905 51.0023 335.905 47.707C335.905 44.4117 337.462 42.7228 340.62 42.7228C343.734 42.7228 345.335 44.3705 345.335 47.707ZM342.696 45.1531C342.264 44.6176 341.572 44.3293 340.62 44.3293C339.668 44.3293 338.976 44.6176 338.544 45.1531C338.111 45.6886 337.895 46.5536 337.895 47.6658C337.895 48.778 338.111 49.643 338.544 50.1785C338.976 50.714 339.668 51.0023 340.62 51.0023C341.572 51.0023 342.264 50.714 342.696 50.1785C343.129 49.643 343.388 48.778 343.388 47.6658C343.388 46.5536 343.172 45.6886 342.696 45.1531ZM347.757 48.3249C347.238 48.3249 346.979 48.0777 346.979 47.5834C346.979 47.0891 347.238 46.8008 347.757 46.8008H351.694C352.213 46.8008 352.472 47.0479 352.472 47.5834C352.472 48.0777 352.213 48.3249 351.694 48.3249H347.757ZM360.691 42.97C361.167 42.97 361.383 43.2171 361.383 43.6702C361.383 44.1233 361.167 44.3705 360.691 44.3705H358.442V51.9498C358.442 52.4441 358.139 52.6912 357.533 52.6912C356.928 52.6912 356.582 52.4441 356.582 51.9498V44.3293H354.376C353.9 44.3293 353.64 44.0821 353.64 43.629C353.64 43.1759 353.857 42.9288 354.376 42.9288H360.691V42.97ZM371.462 47.707C371.462 51.0023 369.905 52.65 366.747 52.65C363.589 52.65 362.032 51.0023 362.032 47.707C362.032 44.4117 363.589 42.7228 366.747 42.7228C369.862 42.7228 371.462 44.3705 371.462 47.707ZM368.823 45.1531C368.391 44.6176 367.699 44.3293 366.747 44.3293C365.795 44.3293 365.103 44.6176 364.671 45.1531C364.238 45.6886 364.022 46.5536 364.022 47.6658C364.022 48.778 364.238 49.643 364.671 50.1785C365.103 50.714 365.795 51.0023 366.747 51.0023C367.699 51.0023 368.391 50.714 368.823 50.1785C369.256 49.643 369.516 48.778 369.516 47.6658C369.516 46.5536 369.299 45.6886 368.823 45.1531ZM162.099 66.1609C162.921 65.2135 163.959 64.7604 165.257 64.7604C168.026 64.7604 169.41 66.408 169.41 69.7446C169.41 70.4448 169.323 71.1039 169.194 71.6806C169.021 72.2573 168.804 72.7928 168.458 73.2459C168.112 73.699 167.68 74.0697 167.074 74.358C166.512 74.6052 165.82 74.77 165.041 74.77C163.916 74.77 162.965 74.358 162.186 73.5342V77.1179C162.186 77.6122 161.883 77.8593 161.234 77.8593C160.629 77.8593 160.283 77.6122 160.283 77.1179V65.543C160.283 65.0487 160.585 64.8016 161.191 64.8016C161.797 64.8016 162.056 65.0487 162.056 65.543V66.1609H162.099ZM162.921 72.2573C163.397 72.9163 164.089 73.2459 164.954 73.2459C166.555 73.2459 167.377 72.0925 167.377 69.7446C167.377 67.3966 166.555 66.2433 164.954 66.2433C164.089 66.2433 163.397 66.5316 162.921 67.1083C162.445 67.685 162.186 68.3853 162.186 69.1679V70.0329C162.229 70.8567 162.445 71.5982 162.921 72.2573ZM177.672 73.1635C176.893 74.2345 175.725 74.77 174.168 74.77C173.173 74.77 172.308 74.5228 171.659 73.9873C171.01 73.493 170.664 72.7516 170.664 71.8042C170.664 69.5798 172.568 68.4676 176.417 68.4676H177.672C177.672 67.8909 177.629 67.3966 177.499 67.0259C177.239 66.3669 176.461 66.0373 175.206 66.0373C174.341 66.0373 173.606 66.2433 173 66.6964C172.827 66.82 172.611 66.9023 172.438 66.9023C172.265 66.9023 172.005 66.82 171.789 66.6964C171.573 66.5728 171.486 66.408 171.486 66.2021C171.486 65.9961 171.616 65.7902 171.919 65.5842C172.741 65.0075 173.909 64.7192 175.509 64.7192C176.98 64.7192 178.018 65.0487 178.623 65.6666C179.272 66.2845 179.575 67.2731 179.575 68.5912V72.5456C179.575 72.9987 179.618 73.4106 179.662 73.699C179.705 74.1933 179.489 74.4816 178.97 74.5228C178.321 74.564 177.975 74.358 177.845 73.9049C177.715 73.4518 177.672 73.2047 177.672 73.1635ZM177.672 69.827C177.11 69.7858 176.634 69.7858 176.331 69.7858C175.898 69.7858 175.466 69.827 175.076 69.8682C174.687 69.9093 174.298 70.0329 173.909 70.1565C173.519 70.2801 173.216 70.5272 173 70.8156C172.784 71.1039 172.654 71.4746 172.654 71.8454C172.654 72.3397 172.827 72.7104 173.173 72.9575C173.519 73.2047 173.952 73.3694 174.471 73.3694C175.423 73.3694 176.201 73.0811 176.763 72.4632C177.456 71.8042 177.758 70.9391 177.672 69.827ZM189.611 72.0925C189.74 72.2161 189.74 72.422 189.74 72.7516C189.611 73.2047 189.265 73.6166 188.616 74.0285C187.967 74.4404 187.145 74.6464 186.193 74.6464C183.079 74.6464 181.478 72.9987 181.478 69.7034C181.478 66.408 183.036 64.7192 186.193 64.7192C187.102 64.7192 187.924 64.9251 188.616 65.3371C189.308 65.749 189.697 66.2433 189.827 66.7788C189.87 67.0671 189.87 67.2731 189.74 67.3966C189.654 67.5202 189.438 67.6438 189.135 67.685H189.048C188.529 67.685 188.183 67.479 188.053 67.1083C187.751 66.408 187.145 66.0785 186.193 66.0785C184.377 66.0785 183.468 67.2731 183.468 69.6622C183.468 72.0513 184.377 73.2459 186.193 73.2459C187.015 73.2459 187.621 72.9575 187.967 72.3397C188.226 71.9277 188.573 71.7218 189.005 71.8042C189.265 71.8454 189.481 71.9277 189.611 72.0925ZM199.646 72.0925C199.776 72.2161 199.776 72.422 199.776 72.7516C199.646 73.2047 199.3 73.6166 198.651 74.0285C198.003 74.4404 197.181 74.6464 196.229 74.6464C193.115 74.6464 191.514 72.9987 191.514 69.7034C191.514 66.408 193.071 64.7192 196.229 64.7192C197.137 64.7192 197.959 64.9251 198.651 65.3371C199.343 65.749 199.733 66.2433 199.863 66.7788C199.906 67.0671 199.906 67.2731 199.776 67.3966C199.69 67.5202 199.473 67.6438 199.17 67.685H199.084C198.565 67.685 198.219 67.479 198.089 67.1083C197.786 66.408 197.181 66.0785 196.229 66.0785C194.412 66.0785 193.504 67.2731 193.504 69.6622C193.504 72.0513 194.412 73.2459 196.229 73.2459C197.051 73.2459 197.656 72.9575 198.003 72.3397C198.262 71.9277 198.608 71.7218 199.041 71.8042C199.343 71.8454 199.517 71.9277 199.646 72.0925ZM204.058 68.674C204.707 68.5916 205.226 68.4269 205.572 68.1797C205.962 67.9326 206.308 67.5618 206.611 67.1087L207.086 66.3261C207.389 65.8318 207.649 65.4199 207.865 65.1727C208.168 64.8844 208.514 64.7608 208.946 64.802C209.682 64.8432 209.855 65.1727 209.509 65.7082C209.249 66.1201 209.033 66.4085 208.903 66.6144C208.86 66.6968 208.773 66.7792 208.687 66.944C208.6 67.0675 208.514 67.2323 208.427 67.3147C208.341 67.3971 208.298 67.5206 208.211 67.6442C207.735 68.2621 207.216 68.7564 206.567 69.1271C207.562 69.3743 208.298 70.1981 208.86 71.5574C209.12 72.1753 209.336 72.752 209.639 73.2875L209.941 73.9053C210.158 74.3173 209.985 74.5644 209.422 74.688C208.903 74.7704 208.557 74.688 208.384 74.4408C208.125 74.1525 207.779 73.617 207.432 72.7932L207.216 72.2577C206.87 71.4338 206.481 70.816 206.092 70.4864C205.659 70.1157 204.967 69.9509 204.015 69.9921V73.9465C204.015 74.4408 203.712 74.688 203.064 74.688C202.415 74.688 202.112 74.4408 202.112 73.9465V65.5434C202.112 65.0491 202.415 64.802 203.064 64.802C203.712 64.802 204.015 65.0491 204.015 65.5434V68.674H204.058ZM217.901 73.1635C217.122 74.2345 215.954 74.77 214.397 74.77C213.402 74.77 212.537 74.5228 211.888 73.9873C211.239 73.493 210.893 72.7516 210.893 71.8042C210.893 69.5798 212.796 68.4676 216.646 68.4676H217.901C217.901 67.8909 217.857 67.3966 217.728 67.0259C217.468 66.3669 216.689 66.0373 215.435 66.0373C214.57 66.0373 213.834 66.2433 213.229 66.6964C213.056 66.82 212.84 66.9023 212.667 66.9023C212.494 66.9023 212.234 66.82 212.018 66.6964C211.801 66.5728 211.715 66.408 211.715 66.2021C211.715 65.9961 211.845 65.7902 212.147 65.5842C212.969 65.0075 214.137 64.7192 215.738 64.7192C217.209 64.7192 218.247 65.0487 218.852 65.6666C219.501 66.2845 219.804 67.2731 219.804 68.5912V72.5456C219.804 72.9987 219.847 73.4106 219.89 73.699C219.934 74.1933 219.717 74.4816 219.198 74.5228C218.549 74.564 218.203 74.358 218.074 73.9049C217.944 73.4518 217.901 73.2047 217.901 73.1635ZM217.901 69.827C217.338 69.7858 216.862 69.7858 216.56 69.7858C216.127 69.7858 215.695 69.827 215.305 69.8682C214.916 69.9093 214.527 70.0329 214.137 70.1565C213.748 70.2801 213.445 70.5272 213.229 70.8156C213.013 71.1039 212.883 71.4746 212.883 71.8454C212.883 72.3397 213.056 72.7104 213.402 72.9575C213.748 73.2047 214.181 73.3694 214.7 73.3694C215.651 73.3694 216.43 73.0811 216.992 72.4632C217.728 71.8042 218.03 70.9391 217.901 69.827ZM229.666 71.6806C229.666 72.5868 229.32 73.3283 228.585 73.8637C227.85 74.3992 226.898 74.6876 225.687 74.6876C225.118 74.6852 224.551 74.6161 224 74.4816C223.481 74.3169 222.962 74.0697 222.486 73.699C222.01 73.3283 221.75 72.834 221.621 72.2573C221.577 72.0101 221.664 71.8454 221.75 71.7218C221.88 71.557 222.14 71.4334 222.529 71.4334C223.091 71.4334 223.394 71.6394 223.438 72.0925C223.481 72.3396 223.567 72.5456 223.74 72.7104C223.913 72.8751 224.13 73.0399 224.346 73.1223C224.605 73.2047 224.822 73.2871 224.995 73.3283C225.211 73.3694 225.384 73.3694 225.557 73.3694C226.206 73.3694 226.725 73.2047 227.114 72.9163C227.504 72.5868 227.677 72.1749 227.677 71.6394C227.677 71.2275 227.504 70.8979 227.201 70.6508C226.898 70.4036 226.595 70.2389 226.292 70.1977C225.99 70.1565 225.687 70.1153 225.341 70.1153H225.038C224.562 70.1153 224.303 69.8681 224.303 69.415C224.303 68.9619 224.605 68.756 225.168 68.756C226.682 68.756 227.46 68.2617 227.46 67.3143C227.46 66.9023 227.287 66.5728 226.985 66.3257C226.638 66.0785 226.206 65.9549 225.687 65.9549C224.346 65.9549 223.654 66.3257 223.567 67.1083C223.524 67.4378 223.264 67.6438 222.789 67.6438C222.399 67.6438 222.14 67.5614 221.967 67.3555C221.88 67.2319 221.837 67.1083 221.837 66.9435C221.924 66.1609 222.356 65.5842 223.135 65.1723C223.913 64.8016 224.778 64.5956 225.687 64.5956C226.292 64.5956 226.898 64.678 227.417 64.8428C227.936 65.0075 228.412 65.2959 228.801 65.7078C229.191 66.1197 229.407 66.614 229.407 67.2319C229.407 68.1793 228.845 68.8796 227.72 69.3739C229.018 69.7858 229.666 70.5684 229.666 71.6806ZM233.603 68.55H236.501C237.582 68.55 238.404 68.8384 239.01 69.3739C239.616 69.9093 239.918 70.6096 239.918 71.5158C239.918 72.3808 239.572 73.1223 238.923 73.6578C238.275 74.2345 237.453 74.5228 236.458 74.5228H233.473C233.084 74.5228 232.738 74.4816 232.478 74.3992C232.219 74.3169 232.046 74.1521 231.959 73.9461C231.873 73.7402 231.786 73.5754 231.786 73.4106C231.786 73.2459 231.743 73.0399 231.743 72.7516V65.5842C231.743 65.0899 232.046 64.8428 232.694 64.8428C233.3 64.8428 233.603 65.0899 233.603 65.5842V68.55ZM233.603 72.7928C233.603 72.9163 233.646 73.0399 233.689 73.0811C233.776 73.1223 233.862 73.1223 234.035 73.1223H236.198C236.761 73.1223 237.15 72.9987 237.453 72.7104C237.755 72.422 237.885 72.0513 237.885 71.557C237.885 70.486 237.323 69.9505 236.198 69.9505H233.603V72.7928ZM242.643 73.9461C242.643 74.4404 242.341 74.6876 241.692 74.6876C241.086 74.6876 240.783 74.4404 240.783 73.9461V65.543C240.783 65.0487 241.086 64.8016 241.692 64.8016C242.297 64.8016 242.643 65.0487 242.643 65.543V73.9461ZM250.17 64.9663C251.252 64.9663 252.073 65.1723 252.636 65.5842C253.198 65.9961 253.501 66.5728 253.501 67.3143C253.501 68.2617 253.068 68.9619 252.203 69.3739C252.766 69.621 253.198 69.9093 253.501 70.3624C253.804 70.8156 253.934 71.2687 253.934 71.763C253.934 72.5456 253.631 73.1635 252.982 73.699C252.376 74.1933 251.598 74.4816 250.646 74.4816H247.099C246.753 74.4816 246.493 74.4404 246.234 74.358C246.018 74.2757 245.844 74.1933 245.715 74.1109C245.585 74.0285 245.498 73.8637 245.455 73.699C245.412 73.5342 245.369 73.3694 245.369 73.2459V66.7788V66.2433C245.369 66.1197 245.412 65.9549 245.455 65.7902C245.498 65.6254 245.585 65.4606 245.715 65.3783C245.844 65.2959 246.018 65.2135 246.234 65.1311C246.45 65.0487 246.753 65.0075 247.099 65.0075H250.17V64.9663ZM247.229 68.7972H250.127C250.516 68.7972 250.862 68.6736 251.122 68.4676C251.381 68.2617 251.511 67.9321 251.511 67.5202C251.511 66.7376 251.035 66.3257 250.084 66.3257H247.575C247.402 66.3257 247.315 66.3669 247.229 66.408C247.185 66.4492 247.142 66.5316 247.142 66.6552V68.7972H247.229ZM247.229 72.7516C247.229 72.8751 247.272 72.9575 247.315 72.9987C247.358 73.0399 247.488 73.0811 247.661 73.0811H250.17C251.295 73.0811 251.857 72.5868 251.857 71.6394C251.857 70.6508 251.295 70.1565 250.17 70.1565H247.272V72.7516H247.229ZM262.109 73.1635C261.33 74.2345 260.162 74.77 258.605 74.77C257.61 74.77 256.745 74.5228 256.096 73.9873C255.447 73.493 255.101 72.7516 255.101 71.8042C255.101 69.5798 257.005 68.4676 260.855 68.4676H262.109C262.109 67.8909 262.066 67.3966 261.936 67.0259C261.676 66.3669 260.898 66.0373 259.643 66.0373C258.778 66.0373 258.043 66.2433 257.437 66.6964C257.264 66.82 257.048 66.9023 256.875 66.9023C256.702 66.9023 256.442 66.82 256.226 66.6964C256.01 66.5728 255.923 66.408 255.923 66.2021C255.923 65.9961 256.053 65.7902 256.356 65.5842C257.178 65.0075 258.346 64.7192 259.946 64.7192C261.417 64.7192 262.455 65.0487 263.061 65.6666C263.71 66.2845 264.012 67.2731 264.012 68.5912V72.5456C264.012 72.9987 264.056 73.4106 264.099 73.699C264.142 74.1933 263.926 74.4816 263.407 74.5228C262.758 74.564 262.412 74.358 262.282 73.9049C262.152 73.4518 262.109 73.2047 262.109 73.1635ZM262.109 69.827C261.547 69.7858 261.071 69.7858 260.768 69.7858C260.335 69.7858 259.903 69.827 259.514 69.8682C259.124 69.9093 258.735 70.0329 258.346 70.1565C257.956 70.2801 257.654 70.5272 257.437 70.8156C257.221 71.1039 257.091 71.4746 257.091 71.8454C257.091 72.3397 257.264 72.7104 257.61 72.9575C257.956 73.2047 258.389 73.3694 258.908 73.3694C259.86 73.3694 260.638 73.0811 261.201 72.4632C261.936 71.8042 262.196 70.9391 262.109 69.827ZM271.972 64.9663C272.447 64.9663 272.664 65.2135 272.664 65.6666C272.664 66.1197 272.447 66.3669 271.972 66.3669H269.722V73.9461C269.722 74.4404 269.419 74.6876 268.814 74.6876C268.208 74.6876 267.862 74.4404 267.862 73.9461V66.3669H265.656C265.18 66.3669 264.921 66.1197 264.921 65.6666C264.921 65.2135 265.18 64.9663 265.656 64.9663H271.972ZM276.167 68.55H279.066C280.104 68.55 280.969 68.8384 281.575 69.3739C282.18 69.9093 282.483 70.6096 282.483 71.5158C282.483 72.3808 282.137 73.1223 281.488 73.6578C280.839 74.2345 280.017 74.5228 279.022 74.5228H276.038C275.692 74.5228 275.432 74.4816 275.173 74.3992C274.913 74.3169 274.783 74.2345 274.653 74.1521C274.524 74.0697 274.437 73.9049 274.394 73.7402C274.351 73.5342 274.307 73.4106 274.307 73.2871V65.5842C274.307 65.0899 274.61 64.8428 275.259 64.8428C275.908 64.8428 276.211 65.0899 276.211 65.5842V68.55H276.167ZM276.167 72.7516C276.167 72.9987 276.297 73.0811 276.6 73.0811H278.763C279.888 73.0811 280.45 72.5456 280.45 71.5158C280.45 70.4448 279.888 69.8682 278.763 69.8682H276.167V72.7516Z" fill="#FF6900"/>
</svg>
