<svg width="465" height="428" viewBox="0 0 465 428" fill="none" xmlns="http://www.w3.org/2000/svg">
<g clip-path="url(#clip0_54_731)">
<path d="M157.896 368.873C161.705 366.198 166.582 360.156 166.582 360.156C166.582 360.156 168.162 371.871 165.328 373.624C162.495 375.33 157.896 368.873 157.896 368.873Z" fill="#231F20"/>
<path d="M413.39 216.075C425.189 216.813 442.609 237.245 417.292 276.586C409.07 289.361 422.077 302.229 422.077 302.229C422.077 302.229 389.002 306.933 384.496 302.782C385.007 299.554 385.332 294.296 382.917 286.502C382.917 286.502 368.191 288.116 364.614 282.305C361.037 276.401 364.66 213.031 413.39 216.075Z" stroke="#231F20" stroke-width="3.3326" stroke-linecap="round" stroke-linejoin="round"/>
<path d="M403.356 298.447C394.762 300.107 377.342 303.751 358.947 315.558C351.932 320.031 345.847 346.966 345.847 346.966C345.847 346.966 343.292 346.136 342.781 348.949C342.27 351.763 341.573 356.744 341.573 356.744C341.573 356.744 349.284 367.766 365.915 366.844C365.915 366.844 363.499 414.441 371.164 422.373H429.138C429.138 422.373 460.819 324.228 446.465 315.742C426.026 303.566 415.527 295.357 403.356 298.447Z" fill="white"/>
<path d="M431.228 422.373C431.228 422.373 459.89 335.574 452.272 320.815C449.531 315.512 430.253 304.858 422.588 300.43C421.845 303.659 402.381 306.011 386.586 302.782C381.105 305.55 371.907 308.732 360.991 315.604C353.976 320.031 347.891 347.012 347.891 347.012C347.891 347.012 345.336 346.182 344.825 348.995C344.314 351.809 343.617 356.79 343.617 356.79C343.617 356.79 351.328 367.812 367.959 366.89C367.959 366.89 365.543 414.487 373.208 422.419M365.822 260.075C365.171 260.536 364.567 260.72 363.917 260.628C361.455 260.213 360.294 255.001 361.316 249.006C362.338 243.01 365.171 238.49 367.68 238.905C369.213 239.182 370.235 241.211 370.56 244.163" stroke="#231F20" stroke-width="3.3326" stroke-linecap="round" stroke-linejoin="round"/>
<path d="M384.496 302.782C384.496 302.782 385.332 294.296 382.917 286.502C382.917 286.502 368.191 288.116 364.614 282.305C361.037 276.447 364.66 213.078 413.39 216.122C425.189 216.859 455.57 249.513 417.292 276.632C400.104 288.716 408.791 298.585 408.791 298.585" stroke="#231F20" stroke-width="3.3326" stroke-linecap="round" stroke-linejoin="round"/>
<path d="M451.064 315.788C451.064 315.788 458.729 306.472 449.531 295.219C449.531 295.219 449.252 287.424 440.891 281.705C440.891 281.705 444.932 271.236 438.986 262.611C440.38 259.06 441.402 255.047 441.959 250.389C445.861 216.952 411.996 206.713 400.615 215.891C400.615 215.891 380.64 215.66 374.415 227.421C368.191 239.182 382.731 255.094 382.731 255.094C382.731 255.094 386.865 251.542 391.092 255.001C396.109 259.06 385.146 272.665 384.124 271.697C383.52 271.143 385.657 277.047 391.139 280.967C389.002 285.81 387.562 293.328 394.251 300.476C394.251 300.476 390.488 317.633 401.219 321.738C401.219 321.738 400.244 338.756 412.043 338.803C412.043 338.803 405.121 356.328 417.989 363.984C430.857 371.64 424.121 377.313 424.121 377.313C424.121 377.313 436.106 368.781 432.715 359.418C429.324 350.056 419.104 349.549 416.967 338.572C416.967 338.572 426.769 329.947 418.918 316.342C418.918 316.342 419.986 307.994 412.089 300.476C412.089 300.476 416.27 293.374 415.016 285.164C418.035 284.15 421.845 282.535 425.607 279.906C426.49 280.829 427.465 281.705 428.58 282.581C428.58 282.581 427.698 298.816 438.103 300.984C438.103 300.984 435.827 318.417 446.651 316.711C446.651 316.711 454.734 320.124 448.323 332.346C438.568 351.025 458.032 354.899 458.032 354.899C458.032 354.899 454.409 346.966 461.516 335.989C466.626 328.103 458.914 318.14 451.064 315.788Z" stroke="#231F20" stroke-width="3.3326" stroke-linecap="round" stroke-linejoin="round"/>
<path d="M451.064 315.788C451.064 315.788 458.729 306.472 449.531 295.219C449.531 295.219 449.252 287.424 440.891 281.705C440.891 281.705 444.932 271.236 438.986 262.611C440.38 259.06 441.402 255.047 441.959 250.389C445.861 216.952 411.996 206.713 400.615 215.891C400.615 215.891 380.64 215.66 374.415 227.421C368.191 239.182 382.731 255.094 382.731 255.094C382.731 255.094 386.865 251.542 391.092 255.001C396.109 259.06 385.146 272.665 384.124 271.697C383.52 271.143 385.657 277.047 391.139 280.967C389.002 285.81 387.562 293.328 394.251 300.476C394.251 300.476 390.488 317.633 401.219 321.738C401.219 321.738 400.244 338.756 412.043 338.803C412.043 338.803 405.121 356.328 417.989 363.984C430.857 371.64 424.121 377.313 424.121 377.313C424.121 377.313 436.106 368.781 432.715 359.418C429.324 350.056 419.104 349.549 416.967 338.572C416.967 338.572 426.769 329.947 418.918 316.342C418.918 316.342 419.986 307.994 412.089 300.476C412.089 300.476 416.27 293.374 415.016 285.164C418.035 284.15 421.845 282.535 425.607 279.906C426.49 280.829 427.465 281.705 428.58 282.581C428.58 282.581 427.698 298.816 438.103 300.984C438.103 300.984 435.827 318.417 446.651 316.711C446.651 316.711 454.734 320.124 448.323 332.346C438.568 351.025 458.032 354.899 458.032 354.899C458.032 354.899 454.409 346.966 461.516 335.989C466.626 328.103 458.914 318.14 451.064 315.788Z" stroke="#231F20" stroke-width="3.3326" stroke-linecap="round" stroke-linejoin="round"/>
<path d="M450.321 316.296C450.321 316.296 457.521 306.61 447.719 295.818C447.719 295.818 447.023 288.024 438.429 282.766C438.429 282.766 441.959 272.112 435.548 263.81C436.756 260.213 438.614 256.523 438.893 251.819C441.076 218.243 413.065 206.159 402.195 215.891C402.195 215.891 378.643 210.264 371.257 230.234C366.193 243.932 379.618 257.999 379.618 257.999C379.618 257.999 386.819 250.066 391 255.001C395.18 259.936 385.1 272.619 384.032 271.697C383.428 271.144 385.379 277.324 391.046 280.967C389.141 285.902 385.704 296.971 392.765 303.797C392.765 303.797 389.838 321.092 400.801 324.69C400.801 324.69 400.662 341.754 412.461 341.155C412.461 341.155 406.422 359.003 419.661 366.014C432.901 373.024 426.444 379.02 426.444 379.02C426.444 379.02 437.964 369.888 434.108 360.71C430.253 351.532 420.033 351.532 417.339 340.647C417.339 340.647 426.722 331.562 418.175 318.371C418.175 318.371 418.825 309.977 410.556 302.875C410.556 302.875 412.833 293.927 411.16 285.81C412.879 285.81 419.383 284.519 423.006 281.659C423.889 282.535 424.957 283.366 426.118 284.196C426.118 284.196 426.072 300.43 436.57 302.137C436.57 302.137 435.177 319.662 445.908 317.403C445.908 317.403 454.13 320.4 448.37 332.945C439.59 352.085 459.193 354.991 459.193 354.991C459.193 354.991 455.152 347.243 461.702 335.943C466.487 327.78 458.311 318.233 450.321 316.296Z" fill="#231F20"/>
<path d="M362.384 246.284C362.384 246.284 389.977 250.435 395.877 255.601C401.033 260.167 398.571 268.422 391.232 268.93" stroke="#231F20" stroke-width="3.3326" stroke-linecap="round" stroke-linejoin="round"/>
<path d="M414.923 291.621C414.923 291.621 416.642 297.386 420.544 300.43M406.422 216.952C418.128 219.212 425.236 229.497 426.258 238.905M346.497 359.787C341.341 382.294 339.018 388.013 339.018 388.013M365.915 366.844C365.171 375.653 348.03 422.373 348.03 422.373M309.706 419.053C309.706 419.053 321.877 351.947 322.248 343.83M224.835 280.183C235.241 278.523 246.204 275.11 246.204 275.11M451.064 315.788C451.064 315.788 458.729 306.472 449.531 295.219C449.531 295.219 449.252 287.424 440.891 281.705C440.891 281.705 444.932 271.236 438.986 262.611C440.38 259.06 441.402 255.047 441.959 250.389C445.861 216.952 411.996 206.713 400.615 215.891C400.615 215.891 380.64 215.66 374.416 227.421C368.191 239.182 382.731 255.094 382.731 255.094C382.731 255.094 386.865 251.542 391.092 255.001C396.109 259.06 385.146 272.665 384.124 271.697C383.52 271.144 385.657 277.047 391.139 280.967C389.002 285.81 387.562 293.328 394.251 300.476C394.251 300.476 390.488 317.633 401.219 321.738C401.219 321.738 400.244 338.756 412.043 338.803C412.043 338.803 405.121 356.328 417.989 363.984C430.857 371.641 424.121 377.313 424.121 377.313C424.121 377.313 436.106 368.781 432.715 359.419C429.324 350.056 419.104 349.549 416.967 338.572C416.967 338.572 426.769 329.947 418.918 316.342C418.918 316.342 419.986 307.994 412.089 300.476C412.089 300.476 416.27 293.374 415.016 285.164C418.035 284.15 421.845 282.535 425.607 279.906C426.49 280.829 427.465 281.705 428.58 282.581C428.58 282.581 427.698 298.816 438.103 300.984C438.103 300.984 435.827 318.417 446.651 316.711C446.651 316.711 454.734 320.124 448.323 332.346C438.568 351.025 458.032 354.899 458.032 354.899C458.032 354.899 454.409 346.966 461.516 335.989C466.626 328.103 458.915 318.141 451.064 315.788ZM240.583 269.806C241.047 265.471 223.813 261.781 243.928 230.465C243.928 230.465 245.832 209.065 261.673 204.315C277.513 199.564 304.642 197.858 314.165 224.147C323.688 250.435 292.611 274.51 280.951 277.001C280.951 277.001 280.626 281.705 282.763 284.242C292.657 288.715 302.552 294.619 305.432 297.801L215.73 278.892C215.73 278.892 229.573 279.491 241.512 276.263C242.487 274.925 241.28 275.11 240.583 269.806Z" stroke="#231F20" stroke-width="3.3326" stroke-linecap="round" stroke-linejoin="round"/>
<path d="M242.116 276.632C242.116 276.632 240.629 272.112 240.583 269.806C240.536 265.425 224.696 260.628 243.928 230.465C243.928 230.465 245.832 209.065 261.673 204.315C277.513 199.564 304.642 197.858 314.165 224.147C323.688 250.435 292.611 274.51 280.951 277.001C280.951 277.001 279.79 276.632 282.763 284.242C282.763 284.242 294.608 289.038 300.601 293.973" stroke="#231F20" stroke-width="3.3326" stroke-linecap="round" stroke-linejoin="round"/>
<path d="M174.34 301.675C181.54 294.942 190.367 275.986 232.361 277.508C256.609 289.269 298.696 293.973 299.951 291.529C345.8 313.021 343.896 328.195 349.191 396.085C349.191 396.085 325.965 403.971 312.679 402.68L306.408 422.835H173.365C173.365 422.835 183.492 386.906 181.959 360.664L165.514 374.592C165.514 374.592 168.394 353.054 152.739 323.952C152.739 323.998 167.604 307.902 174.34 301.675Z" fill="#FF6900"/>
<path d="M342.27 393.087C341.387 402.265 337.16 419.652 336.138 423.25M171.088 421.405C171.088 421.405 185.582 372.332 182.377 355.175L163.981 374.546C163.981 374.546 174.526 370.072 150.045 320.4C150.045 320.4 165.421 304.166 172.11 297.894C179.311 291.16 193.107 276.078 234.544 277.6C243.835 284.196 296.327 293.973 296.234 288.669C330.099 306.472 343.71 310.761 350.538 391.749C350.538 391.749 335.348 395.485 315.977 396.269M308.777 421.82C308.777 421.82 325.965 367.213 325.035 330.04M244.624 226.13C240.025 222.302 233.104 224.469 233.104 224.469" stroke="#231F20" stroke-width="3.3326" stroke-linecap="round" stroke-linejoin="round"/>
<path d="M262.463 231.849L233.15 224.469C231.617 231.941 231.896 239.828 237.796 239.828" stroke="#231F20" stroke-width="3.3326" stroke-linecap="round" stroke-linejoin="round"/>
<path d="M265.296 237.429C274.076 233.878 276.538 234.57 276.538 239.92C276.538 245.27 267.991 255.739 265.296 252.834C262.602 249.928 258.096 260.213 266.876 265.102C264.181 272.712 270.685 281.198 282.159 281.198C278.954 278.015 282.391 277.416 288.244 278.062C294.097 278.753 294.097 271.144 296.327 271.144C298.557 271.144 312.493 270.498 309.102 261.274C323.503 247.714 328.705 235.907 320.39 230.511C320.669 219.119 315.513 217.966 315.513 217.966C315.513 217.966 328.055 208.604 315.977 202.47C319.322 208.373 313.747 210.034 311.471 207.036C310.124 205.283 298.789 185.82 289.08 190.755C268.827 186.051 252.847 190.525 260.372 194.998C243.881 198.134 226.415 207.958 250.756 220.457C246.575 213.769 257.306 212.847 260.372 215.107C255.541 220.457 261.626 226.96 263.856 227.19C259.211 230.281 265.296 237.429 265.296 237.429Z" fill="#FF6900"/>
<path d="M154.179 335.159C151.392 315.788 144.517 314.589 133.508 290.653C122.498 266.716 128.444 270.175 129.094 262.381C129.745 254.586 128.862 248.452 128.212 245.685C126.214 237.199 129.884 231.803 127.561 230.742C124.496 229.358 120.686 238.49 121.383 247.069C122.033 255.462 105.961 217.874 99.5035 217.597C97.506 217.505 96.8092 218.658 98.6209 222.163C107.865 240.289 105.542 242.18 105.542 242.18C105.542 242.18 96.5305 223.178 90.0734 219.627C87.3327 218.105 87.7972 221.472 90.4915 226.545C94.3472 235.584 90.3986 232.679 92.8606 243.102C95.0904 252.603 91.1883 250.481 93.9755 256.938C98.1564 268.33 104.753 275.571 108.655 282.997C111.442 289.131 116.18 325.935 128.862 351.117C136.945 367.213 144.935 372.932 151.439 372.24C157.942 371.548 163.563 363.477 163.563 363.477M262.463 231.849C266.504 232.771 270.545 235.446 270.545 235.446M275.33 245.777C275.888 249.052 277.746 250.897 277.746 250.897M263.299 292.544L279.976 295.357M266.225 298.078L276.213 299.784M267.294 236.415C276.073 232.863 278.535 233.555 278.535 238.905C278.535 244.255 269.988 254.725 267.294 251.819C264.599 248.913 260.093 259.198 268.873 264.087C266.179 271.697 272.682 280.183 284.156 280.183C280.951 277.001 284.389 276.401 290.242 277.047C296.095 277.693 296.095 270.129 298.325 270.129C300.554 270.129 314.491 269.483 311.099 260.259C325.5 246.7 330.703 234.893 322.388 229.497C322.666 218.105 317.51 216.952 317.51 216.952C317.51 216.952 330.052 207.589 317.975 201.455C321.319 207.359 315.745 209.019 313.469 206.021C312.121 204.269 300.787 184.806 291.078 189.741C270.824 185.036 254.844 189.51 262.37 193.984C245.879 197.12 228.412 206.944 252.754 219.442C248.573 212.755 259.304 211.832 262.37 214.092C257.538 219.442 263.624 225.945 265.854 226.176C261.208 229.266 267.294 236.415 267.294 236.415Z" stroke="#231F20" stroke-width="3.3326" stroke-linecap="round" stroke-linejoin="round"/>
<path d="M91.0955 228.297C92.2568 232.033 95.6015 237.983 96.5305 240.335C97.2273 242.041 97.9706 243.194 98.8532 246.93M95.044 251.819C94.6724 249.928 92.7678 243.148 92.7678 243.148M109.445 243.148C109.445 245.039 109.956 246.146 109.956 246.146M156.827 370.072C159.893 375.699 163.981 374.546 163.981 374.546" stroke="#231F20" stroke-width="3.3326" stroke-linecap="round" stroke-linejoin="round"/>
<path d="M1.53296 422.604L2.50848 422.696M28.987 422.65L437.732 423.25M6.31767 422.604L20.5789 422.696M462.306 423.25L463.513 423.296M448.184 423.25L455.988 423.296" stroke="#231F20" stroke-width="3.3326" stroke-linecap="round" stroke-linejoin="round"/>
</g>
<path d="M133.061 65.8682C133.061 49.357 133.014 60.7488 133.014 60.7488C133.014 56.4134 148.065 63.7466 148.065 63.7466C147.926 76.6143 135.569 86.9915 122.701 86.9915C119.914 86.9915 117.266 86.4841 114.758 85.6078C123.909 84.8238 133.386 75.2307 133.061 65.8682Z" fill="#FEF3E9"/>
<path d="M155.498 37.8268C155.498 37.8268 132.503 37.8268 132.503 60.6565V64.2078C132.503 64.2078 132.503 87.0376 155.498 87.0376H332.346C332.346 87.0376 355.341 87.0376 355.341 64.2078V60.6565C355.341 60.6565 355.341 37.8268 332.346 37.8268H155.498Z" fill="#FEF3E9"/>
<path d="M153.407 55.7217C153.686 55.3527 154.243 55.1682 155.033 55.1682H159.4C160.747 55.1682 161.862 55.4911 162.791 56.1368C163.72 56.7824 164.138 57.7049 164.138 58.904C164.138 60.5643 163.348 61.6712 161.769 62.2708C162.651 62.5936 163.302 63.0548 163.813 63.7467C164.324 64.4385 164.556 65.1764 164.556 66.0527C164.556 67.4363 164.092 68.4971 163.116 69.235C162.14 69.973 160.933 70.3419 159.353 70.3419H154.987C154.197 70.3419 153.639 70.1574 153.361 69.7885C153.082 69.4195 152.896 68.9122 152.896 68.2665V57.3359C152.943 56.598 153.129 56.0906 153.407 55.7217ZM158.517 61.5329C160.747 61.5329 161.862 60.7488 161.862 59.1346C161.862 58.3967 161.583 57.8893 161.072 57.5204C160.561 57.1514 159.864 57.013 159.028 57.013H155.683C155.358 57.013 155.219 57.1975 155.219 57.5204V61.579H158.517V61.5329ZM161.444 67.8053C162.001 67.3441 162.28 66.7445 162.28 65.9605C162.28 65.038 162.001 64.3462 161.397 63.885C160.793 63.4238 160.004 63.1932 159.028 63.1932H155.219V67.9436C155.219 68.2665 155.358 68.451 155.683 68.451H159.353C160.189 68.451 160.886 68.2204 161.444 67.8053ZM168.969 60.426C169.898 59.3191 171.06 58.7656 172.546 58.7656C175.705 58.7656 177.284 60.7488 177.284 64.6691C177.284 65.4992 177.191 66.2833 177.006 66.929C176.82 67.5747 176.541 68.2204 176.169 68.7738C175.798 69.3273 175.287 69.7885 174.59 70.0652C173.94 70.388 173.15 70.5264 172.267 70.5264C170.967 70.5264 169.898 70.0652 169.062 69.0967V73.3398C169.062 73.9393 168.69 74.2161 167.994 74.2161C167.297 74.2161 166.925 73.9393 166.925 73.3398V59.6419C166.925 59.0424 167.297 58.7656 167.994 58.7656C168.644 58.7656 169.016 59.0424 169.016 59.6419V60.426H168.969ZM169.898 67.6208C170.456 68.4049 171.199 68.7738 172.221 68.7738C174.079 68.7738 174.962 67.3902 174.962 64.623C174.962 61.8557 174.033 60.4721 172.221 60.4721C171.245 60.4721 170.456 60.8411 169.898 61.5329C169.341 62.2247 169.062 63.0548 169.062 63.9773V65.038C169.062 65.9605 169.341 66.8368 169.898 67.6208ZM189.641 64.623C189.641 68.5432 187.876 70.4803 184.299 70.4803C180.722 70.4803 178.957 68.5432 178.957 64.623C178.957 60.7027 180.722 58.7195 184.299 58.7195C187.829 58.7195 189.641 60.7027 189.641 64.623ZM186.668 61.6251C186.157 60.9794 185.367 60.6566 184.299 60.6566C183.23 60.6566 182.441 60.9794 181.93 61.6251C181.419 62.2708 181.186 63.2855 181.186 64.623C181.186 65.9605 181.419 66.9751 181.93 67.6208C182.441 68.2665 183.23 68.5893 184.299 68.5893C185.367 68.5893 186.157 68.2665 186.668 67.6208C187.179 66.9751 187.458 65.9605 187.458 64.623C187.458 63.2855 187.179 62.2708 186.668 61.6251ZM197.91 58.9962C198.281 58.9962 198.607 59.0423 198.885 59.1346C199.164 59.2268 199.35 59.3191 199.489 59.4113C199.629 59.5036 199.721 59.688 199.768 59.9186C199.814 60.1493 199.861 60.3337 199.861 60.4721V68.6816C200.279 68.7277 200.604 68.8661 200.836 69.0967C201.069 69.3273 201.161 69.6501 201.161 70.0191V71.9561C201.161 72.5557 200.836 72.8324 200.186 72.8324C199.536 72.8324 199.21 72.5557 199.21 71.9561V70.4803C199.21 70.388 199.118 70.2958 198.978 70.2958H191.964C191.824 70.2958 191.731 70.3419 191.731 70.4803V71.9561C191.731 72.5557 191.406 72.8324 190.756 72.8324C190.106 72.8324 189.78 72.5557 189.78 71.9561V70.0191C189.78 69.5579 189.873 69.2811 190.059 69.0505C190.245 68.8661 190.524 68.6355 190.895 68.451C191.267 68.2665 191.546 67.6669 191.731 66.6061C191.824 65.8221 191.964 64.4846 192.057 62.5475C192.057 62.1786 192.103 61.6712 192.149 61.1178C192.242 59.7342 192.893 59.0424 194.101 59.0424H197.91V58.9962ZM197.77 68.6816V61.0717C197.77 60.9333 197.724 60.8411 197.677 60.7488C197.631 60.7027 197.492 60.6566 197.306 60.6566H194.658C194.379 60.6566 194.193 60.7949 194.147 61.1178L194.101 62.3169C194.008 64.3462 193.868 65.8221 193.729 66.6984C193.636 67.5286 193.404 68.2204 193.079 68.6816H197.77ZM212.357 64.4846C212.078 64.7613 211.521 64.8997 210.684 64.8997H204.599C204.599 65.3609 204.646 65.776 204.738 66.1911C204.831 66.6061 204.971 67.0212 205.203 67.4363C205.435 67.8514 205.76 68.2204 206.225 68.451C206.689 68.7277 207.247 68.8199 207.897 68.8199C208.315 68.8199 208.733 68.7277 209.198 68.5893C209.662 68.451 210.034 68.1742 210.266 67.8053C210.545 67.3902 210.963 67.2057 211.474 67.2518C211.846 67.298 212.078 67.4363 212.217 67.6669C212.31 67.8514 212.357 68.082 212.264 68.3126C211.985 69.0505 211.428 69.604 210.592 70.0191C209.709 70.4342 208.78 70.6186 207.804 70.6186C206.829 70.6186 205.946 70.4342 205.203 70.1113C204.46 69.7885 203.902 69.2811 203.484 68.6816C203.066 68.082 202.741 67.4824 202.555 66.7906C202.369 66.0988 202.276 65.407 202.276 64.7152C202.276 63.9311 202.369 63.2393 202.555 62.5475C202.741 61.8557 203.066 61.21 203.484 60.6566C203.902 60.057 204.46 59.5958 205.203 59.273C205.946 58.904 206.782 58.7656 207.758 58.7656C209.337 58.7656 210.592 59.2268 211.521 60.1493C212.357 60.9794 212.775 62.0863 212.728 63.3777C212.775 63.7928 212.636 64.2079 212.357 64.4846ZM210.359 63.3316C210.592 63.3316 210.731 63.1932 210.684 62.9626C210.638 62.0863 210.406 61.4406 209.895 60.9333C209.384 60.4721 208.733 60.1954 207.851 60.1954C206.968 60.1954 206.225 60.5182 205.621 61.1178C205.017 61.7174 204.692 62.4553 204.645 63.2855H210.359V63.3316ZM223.645 63.5622H228.523V59.688C228.523 59.0885 228.894 58.8117 229.591 58.8117C230.288 58.8117 230.659 59.0885 230.659 59.688V69.604C230.659 70.2036 230.288 70.4803 229.591 70.4803C228.894 70.4803 228.523 70.2036 228.523 69.604V65.1764H223.645V69.604C223.645 70.2036 223.273 70.4803 222.577 70.4803C221.88 70.4803 221.508 70.2036 221.508 69.604V59.688C221.508 59.0885 221.88 58.8117 222.577 58.8117C223.273 58.8117 223.645 59.0885 223.645 59.688V63.5622ZM243.109 64.4846C242.83 64.7613 242.273 64.8997 241.437 64.8997H235.351C235.351 65.3609 235.398 65.776 235.491 66.1911C235.584 66.6061 235.723 67.0212 235.955 67.4363C236.187 67.8514 236.513 68.2204 236.977 68.451C237.442 68.7277 237.999 68.8199 238.649 68.8199C239.068 68.8199 239.486 68.7277 239.95 68.5893C240.415 68.4048 240.786 68.1742 241.019 67.8053C241.297 67.3902 241.715 67.2057 242.226 67.2518C242.598 67.298 242.83 67.4363 242.97 67.6669C243.063 67.8514 243.109 68.082 243.016 68.3126C242.737 69.0505 242.18 69.604 241.344 70.0191C240.461 70.4342 239.532 70.6186 238.557 70.6186C237.581 70.6186 236.698 70.4342 235.955 70.1113C235.212 69.7424 234.654 69.2811 234.236 68.6816C233.818 68.082 233.493 67.4824 233.307 66.7906C233.122 66.0988 233.029 65.407 233.029 64.7152C233.029 63.9311 233.122 63.2393 233.307 62.5475C233.493 61.8557 233.818 61.21 234.236 60.6566C234.654 60.057 235.212 59.5958 235.955 59.273C236.698 58.904 237.535 58.7656 238.51 58.7656C240.09 58.7656 241.344 59.2268 242.273 60.1493C243.109 60.9794 243.527 62.0863 243.481 63.3777C243.527 63.7928 243.388 64.2079 243.109 64.4846ZM241.112 63.3316C241.344 63.3316 241.483 63.1932 241.437 62.9626C241.39 62.0863 241.158 61.4406 240.647 60.9333C240.136 60.4721 239.486 60.1954 238.603 60.1954C237.72 60.1954 236.977 60.5182 236.373 61.1178C235.769 61.7174 235.444 62.4553 235.398 63.2855H241.112V63.3316ZM254.444 67.4363C254.583 67.5747 254.63 67.8514 254.583 68.2204C254.444 68.7738 254.026 69.2811 253.282 69.7423C252.539 70.2497 251.656 70.4803 250.542 70.4803C246.965 70.4803 245.199 68.5432 245.199 64.623C245.199 60.7027 246.965 58.7195 250.542 58.7195C251.61 58.7195 252.493 58.9501 253.282 59.4574C254.072 59.9648 254.49 60.5182 254.63 61.1639C254.722 61.4868 254.676 61.7635 254.537 61.9018C254.444 62.0863 254.211 62.1786 253.84 62.2247H253.747C253.143 62.2247 252.771 61.9941 252.632 61.5329C252.26 60.7027 251.564 60.2876 250.542 60.2876C248.498 60.2876 247.429 61.7174 247.429 64.5307C247.429 67.3902 248.451 68.7738 250.542 68.7738C251.471 68.7738 252.121 68.4049 252.586 67.713C252.864 67.2057 253.282 67.0212 253.793 67.0674C254.119 67.1596 254.351 67.2518 254.444 67.4363ZM263.874 58.9962C264.245 58.9962 264.571 59.0423 264.803 59.1346C265.082 59.2268 265.267 59.3191 265.36 59.4574C265.5 59.5497 265.593 59.7342 265.639 59.9648C265.685 60.1954 265.732 60.3798 265.732 60.5182V69.6501C265.732 70.2497 265.36 70.5264 264.663 70.5264C263.967 70.5264 263.595 70.2497 263.595 69.6501V61.0717C263.595 60.7949 263.456 60.7027 263.131 60.7027H260.854C260.483 60.7027 260.297 60.8872 260.25 61.21L260.158 62.3169C259.972 64.8536 259.832 66.5139 259.693 67.3441C259.554 68.4049 259.228 69.235 258.764 69.7885C258.299 70.3419 257.603 70.5725 256.673 70.5264C256.302 70.5264 256.07 70.4342 255.884 70.2497C255.698 70.0652 255.651 69.8807 255.651 69.6962C255.698 69.0967 255.93 68.8199 256.441 68.8199C256.906 68.8199 257.184 68.6816 257.277 68.451C257.417 68.2204 257.51 67.8514 257.556 67.298V67.2057V67.1135C257.649 66.56 257.788 65.2225 257.928 63.101C257.974 62.2708 258.021 61.7174 258.067 61.4867C258.067 61.21 258.114 60.9794 258.114 60.8411C258.114 60.6566 258.206 60.4721 258.253 60.2415C258.299 60.0109 258.439 59.7803 258.578 59.6419C258.717 59.5036 258.903 59.3652 259.182 59.273C259.461 59.1807 259.739 59.1346 260.111 59.1346H263.874V58.9962ZM278.878 64.623C278.878 68.5432 277.113 70.4803 273.536 70.4803C269.959 70.4803 268.194 68.5432 268.194 64.623C268.194 60.7027 269.959 58.7195 273.536 58.7195C277.113 58.7195 278.878 60.7027 278.878 64.623ZM275.905 61.6251C275.394 60.9794 274.605 60.6566 273.536 60.6566C272.468 60.6566 271.678 60.9794 271.167 61.6251C270.656 62.2708 270.424 63.2855 270.424 64.623C270.424 65.9605 270.656 66.9751 271.167 67.6208C271.678 68.2665 272.468 68.5893 273.536 68.5893C274.605 68.5893 275.394 68.2665 275.905 67.6208C276.416 66.9751 276.695 65.9605 276.695 64.623C276.695 63.2855 276.463 62.2708 275.905 61.6251ZM288.215 63.3316C289.237 63.101 290.12 62.4092 290.817 61.2561C290.817 61.2561 290.863 61.1639 290.956 61.0717L291.096 60.7949C291.467 60.057 291.746 59.5497 292.025 59.2268C292.303 58.8579 292.721 58.7195 293.279 58.7656C293.697 58.8117 293.929 58.904 294.069 59.0885C294.208 59.273 294.161 59.5497 293.976 59.8725C293.697 60.2415 293.511 60.6105 293.325 61.0255L292.861 61.9018C292.303 62.8704 291.653 63.5622 290.91 63.9311C292.071 64.3001 292.954 65.2686 293.465 66.7906C293.79 67.8975 294.115 68.8199 294.487 69.5579C294.719 70.0652 294.533 70.3419 293.929 70.4803C293.372 70.5725 292.954 70.4803 292.721 70.2036C292.396 69.7885 292.071 69.0967 291.792 68.082L291.653 67.5747C291.374 66.6061 291.003 65.9143 290.538 65.4992C290.074 65.038 289.377 64.8536 288.355 64.8997V69.604C288.355 70.2036 287.983 70.4803 287.286 70.4803C286.59 70.4803 286.218 70.2036 286.218 69.604V64.8997C285.242 64.8997 284.546 65.1303 284.081 65.5915C283.617 66.0527 283.198 66.7445 282.966 67.5747L282.873 67.9898C282.595 69.0967 282.269 69.8346 281.898 70.2036C281.665 70.4803 281.294 70.5725 280.69 70.4803C280.086 70.388 279.854 70.0652 280.133 69.5579C280.458 68.9122 280.783 67.9898 281.154 66.7906C281.665 65.2225 282.502 64.254 283.709 63.9311C282.92 63.5161 282.269 62.8704 281.758 61.9018L281.387 61.21C280.922 60.3798 280.644 59.9186 280.644 59.9186C280.411 59.5497 280.365 59.3191 280.504 59.1346C280.644 58.9501 280.876 58.8579 281.294 58.8117C281.898 58.7656 282.316 58.904 282.595 59.273C282.873 59.688 283.152 60.1493 283.431 60.7027L283.709 61.3023C284.313 62.5014 285.196 63.1932 286.264 63.3777V59.7342C286.264 59.1346 286.636 58.8579 287.333 58.8579C288.03 58.8579 288.401 59.1346 288.401 59.7342V63.3316H288.215ZM298.714 63.5622H303.592V59.688C303.592 59.0885 303.963 58.8117 304.66 58.8117C305.357 58.8117 305.728 59.0885 305.728 59.688V69.604C305.728 70.2036 305.357 70.4803 304.66 70.4803C303.963 70.4803 303.592 70.2036 303.592 69.604V65.1764H298.714V69.604C298.714 70.2036 298.342 70.4803 297.645 70.4803C296.949 70.4803 296.577 70.2036 296.577 69.604V59.688C296.577 59.0885 296.949 58.8117 297.645 58.8117C298.342 58.8117 298.714 59.0885 298.714 59.688V63.5622ZM318.782 64.623C318.782 68.5432 317.017 70.4803 313.44 70.4803C309.863 70.4803 308.098 68.5432 308.098 64.623C308.098 60.7027 309.863 58.7195 313.44 58.7195C317.017 58.7195 318.782 60.7027 318.782 64.623ZM315.809 61.6251C315.298 60.9794 314.508 60.6566 313.44 60.6566C312.371 60.6566 311.582 60.9794 311.071 61.6251C310.56 62.2708 310.327 63.2855 310.327 64.623C310.327 65.9605 310.56 66.9751 311.071 67.6208C311.582 68.2665 312.371 68.5893 313.44 68.5893C314.508 68.5893 315.298 68.2665 315.809 67.6208C316.32 66.9751 316.599 65.9605 316.599 64.623C316.599 63.2855 316.32 62.2708 315.809 61.6251ZM323.799 67.9898C324.031 68.2204 324.124 68.5893 324.124 69.0505C324.124 69.5117 324.031 69.8807 323.799 70.1574C323.567 70.388 323.195 70.5264 322.591 70.5264C321.987 70.5264 321.616 70.388 321.43 70.1574C321.244 69.9268 321.105 69.5579 321.105 69.0505C321.105 68.5893 321.197 68.2204 321.43 67.9898C321.662 67.7592 322.034 67.6208 322.591 67.6208C323.195 67.6208 323.567 67.7592 323.799 67.9898ZM329.838 67.9898C330.07 68.2204 330.163 68.5893 330.163 69.0505C330.163 69.5117 330.07 69.8807 329.838 70.1574C329.606 70.388 329.234 70.5264 328.63 70.5264C328.026 70.5264 327.654 70.388 327.469 70.1574C327.283 69.9268 327.143 69.5579 327.143 69.0505C327.143 68.5893 327.236 68.2204 327.469 67.9898C327.701 67.7592 328.073 67.6208 328.63 67.6208C329.234 67.6208 329.606 67.7592 329.838 67.9898ZM335.877 67.9898C336.109 68.2204 336.202 68.5893 336.202 69.0505C336.202 69.5117 336.109 69.8807 335.877 70.1574C335.645 70.388 335.273 70.5264 334.669 70.5264C334.065 70.5264 333.693 70.388 333.508 70.1574C333.322 69.9268 333.182 69.5579 333.182 69.0505C333.182 68.5893 333.275 68.2204 333.508 67.9898C333.74 67.7592 334.112 67.6208 334.669 67.6208C335.273 67.6208 335.645 67.7592 335.877 67.9898Z" fill="#FF6900"/>
<path d="M446.158 152.506V148.217C446.204 147.433 446.297 146.741 446.297 145.911V123.265C446.297 123.265 446.297 95.5469 418.378 95.5469H196.795C196.795 95.5469 168.876 95.5469 168.876 123.265V145.911C168.876 145.911 168.876 173.629 196.795 173.629H418.378C418.378 173.629 430.038 173.583 438.307 166.065C443.092 170.724 449.734 173.629 456.563 173.629C459.35 173.629 461.998 173.122 464.507 172.246C455.309 171.462 445.832 161.868 446.158 152.506Z" fill="#FEF3E9"/>
<path d="M200.79 126.263C201.022 126.909 200.743 127.232 199.907 127.232C199.117 127.232 198.606 126.955 198.421 126.355L197.12 122.712H191.592C191.453 123.127 191.22 123.727 190.942 124.511C190.663 125.341 190.431 125.94 190.291 126.309C190.198 126.632 190.013 126.863 189.78 127.001C189.548 127.14 189.223 127.186 188.805 127.186C188.015 127.186 187.69 126.863 187.969 126.217L192.986 112.704C193.264 112.104 193.729 111.781 194.379 111.781C195.076 111.781 195.541 112.104 195.819 112.704L200.79 126.263ZM196.563 121.052L195.03 116.716C194.89 116.393 194.704 115.655 194.379 114.595C194.147 115.471 193.961 116.163 193.775 116.716C193.404 117.731 192.893 119.161 192.242 121.052H196.563ZM209.337 115.794C209.895 115.794 210.127 116.071 210.127 116.578C210.127 117.131 209.848 117.408 209.337 117.408H205.482C205.156 117.408 205.017 117.546 205.017 117.777V126.355C205.017 126.955 204.645 127.232 203.949 127.232C203.252 127.232 202.88 126.955 202.88 126.355V117.869V117.224C202.88 117.085 202.927 116.901 203.02 116.67C203.112 116.44 203.205 116.255 203.298 116.163C203.438 116.071 203.623 115.978 203.856 115.886C204.134 115.794 204.413 115.748 204.831 115.748H209.337V115.794ZM218.303 125.479C217.42 126.724 216.119 127.37 214.354 127.37C213.193 127.37 212.264 127.047 211.521 126.448C210.777 125.848 210.406 124.972 210.406 123.865C210.406 121.236 212.589 119.899 216.956 119.899H218.349C218.349 119.207 218.303 118.653 218.163 118.192C217.885 117.408 217.002 117.039 215.516 117.039C214.54 117.039 213.704 117.316 213.007 117.823C212.821 117.962 212.589 118.054 212.357 118.054C212.124 118.054 211.846 117.962 211.613 117.777C211.381 117.639 211.288 117.408 211.288 117.177C211.288 116.947 211.428 116.67 211.753 116.44C212.682 115.748 214.029 115.379 215.841 115.379C217.513 115.379 218.674 115.748 219.418 116.532C220.161 117.316 220.486 118.469 220.486 120.037V124.695C220.486 125.249 220.533 125.71 220.579 126.033C220.672 126.632 220.393 126.955 219.789 127.047C219.046 127.14 218.628 126.863 218.535 126.309C218.349 125.848 218.303 125.525 218.303 125.479ZM218.303 121.513C217.652 121.467 217.141 121.467 216.77 121.467C216.259 121.467 215.794 121.513 215.376 121.559C214.958 121.651 214.494 121.743 214.076 121.928C213.657 122.112 213.286 122.343 213.054 122.712C212.775 123.081 212.682 123.45 212.682 123.957C212.682 124.557 212.868 124.972 213.239 125.295C213.611 125.618 214.122 125.756 214.726 125.756C215.794 125.756 216.677 125.387 217.374 124.695C218.071 123.865 218.396 122.85 218.303 121.513ZM223.041 129.63C222.902 129.492 222.855 129.307 222.902 129.077L223.552 125.341C223.691 124.741 224.156 124.418 225.039 124.465C225.457 124.511 225.782 124.649 225.968 124.926C226.153 125.202 226.153 125.479 226.014 125.894L224.528 129.307C224.435 129.538 224.342 129.676 224.202 129.768C224.063 129.861 223.877 129.907 223.552 129.861C223.366 129.861 223.18 129.768 223.041 129.63ZM237.395 120.314H242.273V116.44C242.273 115.84 242.644 115.563 243.341 115.563C244.038 115.563 244.41 115.84 244.41 116.44V126.355C244.41 126.955 244.038 127.232 243.341 127.232C242.644 127.232 242.273 126.955 242.273 126.355V121.928H237.395V126.355C237.395 126.955 237.024 127.232 236.327 127.232C235.63 127.232 235.258 126.955 235.258 126.355V116.44C235.258 115.84 235.63 115.563 236.327 115.563C237.024 115.563 237.395 115.84 237.395 116.44V120.314ZM257.463 121.421C257.463 125.341 255.698 127.278 252.121 127.278C248.544 127.278 246.779 125.341 246.779 121.421C246.779 117.5 248.544 115.517 252.121 115.517C255.698 115.517 257.463 117.454 257.463 121.421ZM254.537 118.423C254.026 117.777 253.236 117.454 252.167 117.454C251.099 117.454 250.309 117.777 249.798 118.423C249.287 119.068 249.055 120.083 249.055 121.421C249.055 122.758 249.287 123.773 249.798 124.418C250.309 125.064 251.099 125.387 252.167 125.387C253.236 125.387 254.026 125.064 254.537 124.418C255.048 123.773 255.326 122.758 255.326 121.421C255.326 120.083 255.048 119.022 254.537 118.423ZM272.746 115.794C273.118 115.794 273.443 115.84 273.722 115.932C274.001 116.024 274.186 116.117 274.326 116.209C274.465 116.301 274.558 116.486 274.604 116.716C274.651 116.947 274.697 117.131 274.697 117.27V125.479C275.115 125.525 275.441 125.664 275.673 125.894C275.905 126.125 275.998 126.448 275.998 126.817V128.754C275.998 129.353 275.673 129.63 275.023 129.63C274.372 129.63 274.047 129.353 274.047 128.754V127.278C274.047 127.186 273.954 127.093 273.815 127.093H266.754C266.614 127.093 266.522 127.14 266.522 127.278V128.754C266.522 129.353 266.196 129.63 265.546 129.63C264.896 129.63 264.571 129.353 264.571 128.754V126.817C264.571 126.402 264.663 126.079 264.849 125.848C265.035 125.664 265.314 125.433 265.685 125.249C266.057 125.064 266.336 124.465 266.522 123.404C266.614 122.62 266.754 121.282 266.847 119.345C266.847 118.976 266.893 118.469 266.94 117.915C267.033 116.532 267.683 115.84 268.891 115.84H272.746V115.794ZM272.607 125.433V117.823C272.607 117.685 272.561 117.593 272.514 117.5C272.468 117.454 272.328 117.408 272.142 117.408H269.495C269.216 117.408 269.03 117.546 268.984 117.869L268.937 119.068C268.844 121.098 268.705 122.574 268.566 123.45C268.473 124.28 268.24 124.972 267.915 125.433H272.607ZM284.824 125.479C283.942 126.724 282.641 127.37 280.876 127.37C279.714 127.37 278.785 127.047 278.042 126.448C277.299 125.848 276.927 124.972 276.927 123.865C276.927 121.236 279.11 119.899 283.477 119.899H284.871C284.871 119.207 284.824 118.653 284.685 118.192C284.406 117.408 283.524 117.039 282.037 117.039C281.062 117.039 280.225 117.316 279.529 117.823C279.343 117.962 279.11 118.054 278.878 118.054C278.646 118.054 278.367 117.962 278.135 117.777C277.903 117.639 277.81 117.408 277.81 117.177C277.81 116.947 277.949 116.67 278.274 116.44C279.203 115.748 280.551 115.379 282.362 115.379C284.035 115.379 285.196 115.748 285.893 116.532C286.589 117.316 286.961 118.469 286.961 120.037V124.695C286.961 125.249 287.008 125.71 287.054 126.033C287.147 126.632 286.868 126.955 286.264 127.047C285.521 127.14 285.103 126.863 285.01 126.309C284.871 125.848 284.824 125.525 284.824 125.479ZM284.824 121.513C284.174 121.467 283.663 121.467 283.291 121.467C282.78 121.467 282.316 121.513 281.898 121.559C281.48 121.651 281.015 121.743 280.597 121.928C280.179 122.112 279.807 122.343 279.575 122.712C279.296 123.081 279.203 123.45 279.203 123.957C279.203 124.557 279.389 124.972 279.761 125.295C280.132 125.618 280.643 125.756 281.247 125.756C282.316 125.756 283.198 125.387 283.895 124.695C284.592 123.865 284.917 122.85 284.824 121.513ZM295.276 115.794C296.531 115.794 297.46 116.024 298.11 116.532C298.76 117.039 299.086 117.685 299.086 118.607C299.086 119.76 298.575 120.544 297.599 121.052C298.249 121.328 298.714 121.697 299.039 122.205C299.364 122.712 299.55 123.265 299.55 123.865C299.55 124.787 299.178 125.525 298.482 126.171C297.785 126.771 296.902 127.093 295.834 127.093H291.792C291.421 127.093 291.096 127.047 290.817 126.955C290.538 126.863 290.352 126.771 290.259 126.678C290.12 126.586 290.027 126.402 289.981 126.171C289.934 125.94 289.888 125.756 289.841 125.618V117.915V117.27C289.841 117.131 289.888 116.947 289.981 116.716C290.074 116.486 290.166 116.301 290.259 116.209C290.352 116.117 290.585 116.024 290.817 115.932C291.096 115.84 291.374 115.794 291.792 115.794H295.276ZM291.978 120.36H295.276C295.741 120.36 296.112 120.221 296.438 119.991C296.763 119.714 296.902 119.345 296.902 118.838C296.902 117.915 296.391 117.454 295.323 117.454H292.489C292.303 117.454 292.164 117.5 292.117 117.546C292.071 117.593 292.025 117.685 292.025 117.823V120.36H291.978ZM291.978 125.018C291.978 125.156 292.025 125.249 292.071 125.341C292.117 125.387 292.257 125.433 292.443 125.433H295.276C296.577 125.433 297.181 124.88 297.181 123.727C297.181 122.527 296.531 121.928 295.276 121.928H291.978V125.018ZM308.887 125.479C308.005 126.724 306.704 127.37 304.939 127.37C303.777 127.37 302.848 127.047 302.105 126.448C301.362 125.848 300.99 124.972 300.99 123.865C300.99 121.236 303.173 119.899 307.54 119.899H308.934C308.934 119.207 308.887 118.653 308.748 118.192C308.469 117.408 307.586 117.039 306.1 117.039C305.124 117.039 304.288 117.316 303.592 117.823C303.406 117.962 303.173 118.054 302.941 118.054C302.709 118.054 302.43 117.962 302.198 117.777C301.966 117.639 301.873 117.408 301.873 117.177C301.873 116.947 302.012 116.67 302.337 116.44C303.266 115.748 304.613 115.379 306.425 115.379C308.097 115.379 309.259 115.748 309.956 116.532C310.652 117.316 311.024 118.469 311.024 120.037V124.695C311.024 125.249 311.071 125.71 311.117 126.033C311.21 126.632 310.931 126.955 310.327 127.047C309.584 127.14 309.166 126.863 309.073 126.309C308.934 125.848 308.887 125.525 308.887 125.479ZM308.887 121.513C308.237 121.467 307.726 121.467 307.354 121.467C306.843 121.467 306.379 121.513 305.961 121.559C305.543 121.651 305.078 121.743 304.66 121.928C304.242 122.112 303.87 122.343 303.638 122.712C303.359 123.081 303.266 123.45 303.266 123.957C303.266 124.557 303.452 124.972 303.824 125.295C304.195 125.618 304.706 125.756 305.31 125.756C306.379 125.756 307.261 125.387 307.958 124.695C308.655 123.865 308.98 122.85 308.887 121.513ZM322.359 115.563C323.056 115.563 323.427 115.84 323.427 116.44V126.355C323.427 126.955 323.056 127.232 322.359 127.232C321.662 127.232 321.29 126.955 321.29 126.355V119.022C321.058 119.437 320.826 119.806 320.594 120.083L315.902 126.863C315.669 127.14 315.391 127.278 314.926 127.278C314.229 127.278 313.858 127.001 313.858 126.402V116.486C313.858 115.886 314.229 115.609 314.926 115.609C315.623 115.609 315.995 115.886 315.995 116.486V123.911C316.273 123.404 318.085 120.775 321.43 115.978C321.615 115.702 321.894 115.563 322.359 115.563ZM321.523 111.874C321.941 112.058 322.034 112.381 321.801 112.796C321.523 113.303 321.105 113.672 320.547 113.949C319.943 114.226 319.339 114.364 318.689 114.364C317.899 114.364 317.249 114.226 316.691 113.903C316.134 113.58 315.762 113.211 315.53 112.796C315.344 112.381 315.53 112.012 315.995 111.781C316.32 111.689 316.598 111.781 316.877 112.104C317.388 112.612 317.992 112.888 318.689 112.888C319.432 112.888 319.99 112.612 320.454 112.104C320.733 111.827 321.104 111.735 321.523 111.874ZM326.865 122.158C326.261 122.158 325.982 121.882 325.982 121.282C325.982 120.683 326.261 120.36 326.865 120.36H331.324C331.928 120.36 332.207 120.683 332.207 121.282C332.207 121.882 331.928 122.158 331.324 122.158H326.865ZM336.899 120.129C337.642 120.037 338.199 119.852 338.617 119.53C339.036 119.207 339.454 118.792 339.825 118.238L340.383 117.316C340.754 116.716 341.033 116.255 341.265 115.978C341.59 115.655 342.009 115.471 342.52 115.517C343.309 115.609 343.542 115.932 343.17 116.578C342.845 117.039 342.612 117.408 342.473 117.639C342.427 117.731 342.334 117.869 342.241 118.008C342.148 118.192 342.055 118.33 341.962 118.469C341.869 118.607 341.776 118.746 341.683 118.838C341.172 119.576 340.522 120.175 339.825 120.59C340.94 120.913 341.776 121.882 342.427 123.45C342.705 124.188 342.984 124.88 343.309 125.479L343.681 126.217C343.913 126.724 343.727 127.001 343.123 127.14C342.52 127.232 342.148 127.14 341.916 126.863C341.591 126.54 341.265 125.894 340.847 124.88L340.615 124.28C340.243 123.312 339.779 122.574 339.314 122.158C338.85 121.743 338.06 121.559 336.945 121.559V126.217C336.945 126.817 336.574 127.093 335.877 127.093C335.18 127.093 334.808 126.817 334.808 126.217V116.301C334.808 115.702 335.18 115.425 335.877 115.425C336.574 115.425 336.945 115.702 336.945 116.301V120.129H336.899ZM352.646 125.479C351.764 126.724 350.463 127.37 348.698 127.37C347.537 127.37 346.607 127.047 345.864 126.448C345.121 125.848 344.749 124.972 344.749 123.865C344.749 121.236 346.933 119.899 351.299 119.899H352.693C352.693 119.207 352.646 118.653 352.507 118.192C352.228 117.408 351.346 117.039 349.859 117.039C348.884 117.039 348.048 117.316 347.351 117.823C347.165 117.962 346.933 118.054 346.7 118.054C346.468 118.054 346.189 117.962 345.957 117.777C345.725 117.639 345.632 117.408 345.632 117.177C345.632 116.947 345.771 116.67 346.097 116.44C347.026 115.748 348.373 115.379 350.184 115.379C351.857 115.379 353.018 115.748 353.715 116.532C354.412 117.316 354.783 118.469 354.783 120.037V124.695C354.783 125.249 354.83 125.71 354.876 126.033C354.969 126.632 354.69 126.955 354.087 127.047C353.343 127.14 352.925 126.863 352.832 126.309C352.693 125.848 352.646 125.525 352.646 125.479ZM352.646 121.513C351.996 121.467 351.485 121.467 351.113 121.467C350.602 121.467 350.138 121.513 349.72 121.559C349.255 121.651 348.837 121.743 348.419 121.928C348.001 122.112 347.629 122.343 347.397 122.712C347.118 123.081 347.026 123.45 347.026 123.957C347.026 124.557 347.211 124.972 347.583 125.295C347.955 125.618 348.466 125.756 349.07 125.756C350.138 125.756 351.021 125.387 351.717 124.695C352.414 123.865 352.739 122.85 352.646 121.513ZM370.531 115.794C370.903 115.794 371.228 115.84 371.46 115.932C371.739 116.024 371.925 116.117 372.018 116.255C372.157 116.347 372.25 116.532 372.296 116.762C372.343 116.993 372.389 117.177 372.389 117.316V126.448C372.389 127.047 372.018 127.324 371.321 127.324C370.624 127.324 370.252 127.047 370.252 126.448V117.869C370.252 117.593 370.113 117.5 369.788 117.5H367.512C367.14 117.5 366.954 117.685 366.908 118.008L366.815 119.115C366.629 121.651 366.49 123.312 366.35 124.142C366.211 125.202 365.886 126.033 365.421 126.586C364.957 127.14 364.26 127.37 363.331 127.324C362.959 127.324 362.727 127.232 362.541 127.047C362.355 126.863 362.309 126.678 362.309 126.494C362.355 125.894 362.588 125.618 363.098 125.618C363.563 125.618 363.842 125.479 363.935 125.249C364.074 125.018 364.167 124.649 364.213 124.096V124.003V123.911C364.306 123.358 364.446 122.02 364.585 119.899C364.631 119.068 364.678 118.515 364.724 118.284C364.724 118.008 364.771 117.777 364.771 117.639C364.771 117.454 364.864 117.27 364.91 117.039C364.957 116.808 365.096 116.578 365.235 116.44C365.375 116.301 365.561 116.163 365.839 116.071C366.118 115.978 366.397 115.932 366.768 115.932H370.531V115.794ZM380.1 128.016C379.915 128.431 379.775 128.8 379.636 129.03C379.497 129.261 379.311 129.538 379.079 129.907C378.846 130.23 378.521 130.46 378.149 130.645C377.778 130.829 377.36 130.875 376.895 130.875C376.57 130.875 376.291 130.829 376.013 130.783C375.78 130.737 375.641 130.599 375.455 130.414C375.269 130.23 375.223 129.953 375.269 129.676C375.362 129.077 375.734 128.846 376.431 129.03C376.849 129.123 377.174 129.03 377.36 128.846C377.592 128.662 377.778 128.385 377.917 127.97L378.428 126.494C377.964 125.387 377.313 123.727 376.384 121.513C375.502 119.299 374.805 117.639 374.387 116.532C374.247 116.209 374.294 115.978 374.48 115.84C374.665 115.702 374.991 115.609 375.362 115.609C375.966 115.609 376.384 115.886 376.57 116.393L379.218 122.943C379.311 123.081 379.404 123.358 379.497 123.727C379.589 123.45 379.682 123.173 379.775 122.943L382.237 116.393C382.423 115.84 382.841 115.563 383.492 115.563C383.863 115.563 384.188 115.655 384.421 115.794C384.653 115.932 384.699 116.163 384.606 116.486L380.1 128.016ZM394.64 126.402C394.64 127.001 394.269 127.278 393.572 127.278C392.875 127.278 392.504 127.001 392.504 126.402V122.527C391.853 123.035 390.924 123.312 389.763 123.312C387.208 123.312 385.907 122.205 385.907 120.037V116.486C385.907 115.886 386.279 115.609 386.976 115.609C387.672 115.609 388.044 115.886 388.044 116.486V119.53C388.044 120.36 388.183 120.913 388.462 121.282C388.741 121.651 389.252 121.79 389.949 121.79C390.785 121.79 391.435 121.605 391.9 121.282C392.364 120.959 392.55 120.498 392.55 119.991V116.532C392.55 115.932 392.922 115.655 393.618 115.655C394.315 115.655 394.687 115.932 394.687 116.532V126.402H394.64ZM406.068 125.433H409.738C409.924 125.433 410.063 125.387 410.109 125.341C410.156 125.295 410.202 125.156 410.202 125.018V116.44C410.202 115.84 410.574 115.563 411.271 115.563C411.968 115.563 412.339 115.84 412.339 116.44V124.926C412.339 125.295 412.339 125.525 412.293 125.71C412.293 125.894 412.2 126.079 412.107 126.355C412.014 126.586 411.782 126.771 411.503 126.863C411.224 126.955 410.853 127.001 410.388 127.001H399.611C399.239 127.001 398.914 126.955 398.635 126.863C398.357 126.771 398.171 126.678 398.078 126.586C397.939 126.494 397.846 126.309 397.799 126.079C397.706 125.848 397.706 125.664 397.66 125.525V116.393C397.66 115.794 398.032 115.517 398.728 115.517C399.425 115.517 399.797 115.794 399.797 116.393V124.972C399.797 125.249 399.983 125.387 400.308 125.387H403.978V116.393C403.978 115.794 404.349 115.517 405.046 115.517C405.743 115.517 406.114 115.794 406.114 116.393V125.433H406.068ZM424.789 121.236C424.51 121.513 423.953 121.651 423.116 121.651H417.031C417.031 122.112 417.078 122.527 417.17 122.943C417.263 123.358 417.403 123.773 417.635 124.188C417.867 124.603 418.192 124.972 418.657 125.202C419.121 125.479 419.679 125.571 420.329 125.571C420.747 125.571 421.165 125.479 421.63 125.341C422.094 125.156 422.466 124.926 422.698 124.557C422.977 124.142 423.395 123.957 423.906 124.003C424.278 124.049 424.51 124.188 424.649 124.418C424.742 124.603 424.789 124.833 424.696 125.064C424.417 125.802 423.86 126.355 423.024 126.771C422.141 127.186 421.212 127.37 420.236 127.37C419.261 127.37 418.378 127.186 417.635 126.863C416.892 126.494 416.334 126.033 415.916 125.433C415.498 124.833 415.173 124.234 414.987 123.542C414.801 122.85 414.708 122.158 414.708 121.467C414.708 120.683 414.801 119.991 414.987 119.299C415.173 118.607 415.498 117.962 415.916 117.408C416.334 116.808 416.892 116.347 417.635 116.024C418.378 115.655 419.214 115.517 420.19 115.517C421.769 115.517 423.024 115.978 423.953 116.901C424.789 117.731 425.207 118.838 425.16 120.129C425.207 120.59 425.068 120.959 424.789 121.236ZM422.791 120.129C423.024 120.129 423.163 119.991 423.116 119.76C423.07 118.884 422.838 118.238 422.327 117.731C421.816 117.27 421.165 116.993 420.283 116.993C419.4 116.993 418.657 117.316 418.053 117.915C417.449 118.515 417.124 119.253 417.078 120.083H422.791V120.129ZM197.538 149.831C197.538 150.938 197.12 151.768 196.284 152.46C195.448 153.105 194.333 153.428 192.986 153.428C192.335 153.428 191.685 153.336 191.081 153.152C190.477 152.967 189.92 152.644 189.362 152.229C188.851 151.768 188.526 151.215 188.387 150.523C188.34 150.246 188.433 150.062 188.573 149.923C188.758 149.693 189.037 149.6 189.455 149.6C190.059 149.6 190.431 149.877 190.477 150.384C190.524 150.661 190.663 150.892 190.849 151.122C191.035 151.353 191.267 151.491 191.546 151.583C191.824 151.676 192.057 151.768 192.289 151.814C192.521 151.86 192.753 151.86 192.939 151.86C193.682 151.86 194.286 151.676 194.704 151.307C195.122 150.938 195.355 150.43 195.355 149.785C195.355 149.277 195.169 148.908 194.844 148.632C194.519 148.355 194.147 148.171 193.775 148.124C193.45 148.078 193.079 148.032 192.707 148.032H192.382C191.824 148.032 191.546 147.755 191.546 147.202C191.546 146.695 191.871 146.418 192.521 146.418C194.24 146.418 195.122 145.865 195.122 144.712C195.122 144.204 194.937 143.835 194.565 143.512C194.193 143.236 193.682 143.051 193.079 143.051C191.546 143.051 190.756 143.512 190.663 144.389C190.57 144.804 190.291 145.034 189.78 145.034C189.362 145.034 189.037 144.942 188.851 144.712C188.758 144.573 188.665 144.435 188.712 144.25C188.805 143.328 189.316 142.636 190.198 142.175C191.081 141.714 192.057 141.483 193.125 141.483C193.822 141.483 194.519 141.575 195.122 141.76C195.726 141.944 196.284 142.267 196.702 142.774C197.12 143.282 197.352 143.881 197.352 144.573C197.352 145.68 196.702 146.51 195.448 147.11C196.795 147.571 197.538 148.493 197.538 149.831ZM206.922 151.537C206.039 152.783 204.738 153.428 202.973 153.428C201.812 153.428 200.883 153.105 200.139 152.506C199.396 151.906 199.025 151.03 199.025 149.923C199.025 147.294 201.208 145.957 205.575 145.957H206.968C206.968 145.265 206.922 144.712 206.782 144.25C206.504 143.466 205.621 143.097 204.134 143.097C203.159 143.097 202.323 143.374 201.626 143.881C201.44 144.02 201.208 144.112 200.976 144.112C200.743 144.112 200.465 144.02 200.232 143.835C200 143.697 199.907 143.466 199.907 143.236C199.907 143.005 200.047 142.728 200.372 142.498C201.301 141.806 202.648 141.437 204.46 141.437C206.132 141.437 207.293 141.806 207.99 142.59C208.687 143.374 209.059 144.527 209.059 146.095V150.753C209.059 151.307 209.105 151.768 209.151 152.091C209.244 152.69 208.966 153.013 208.362 153.105C207.618 153.198 207.2 152.921 207.107 152.368C206.968 151.906 206.922 151.63 206.922 151.537ZM206.922 147.617C206.271 147.571 205.76 147.571 205.389 147.571C204.878 147.571 204.413 147.617 203.995 147.663C203.531 147.755 203.112 147.848 202.694 148.032C202.276 148.217 201.905 148.447 201.672 148.816C201.394 149.185 201.301 149.554 201.301 150.062C201.301 150.661 201.487 151.076 201.858 151.399C202.23 151.722 202.741 151.86 203.345 151.86C204.413 151.86 205.296 151.491 205.993 150.799C206.689 149.969 207.015 148.908 206.922 147.617ZM214.076 146.233C214.819 146.141 215.376 145.957 215.794 145.634C216.212 145.311 216.63 144.896 216.956 144.343L217.513 143.42C217.885 142.821 218.163 142.359 218.396 142.083C218.721 141.76 219.139 141.575 219.65 141.621C220.44 141.714 220.672 142.037 220.3 142.682C219.975 143.143 219.743 143.512 219.603 143.743C219.557 143.835 219.464 143.974 219.371 144.112C219.278 144.296 219.185 144.435 219.093 144.573C219 144.712 218.907 144.85 218.814 144.942C218.303 145.68 217.652 146.28 216.956 146.695C218.071 147.018 218.907 147.986 219.557 149.554C219.836 150.292 220.114 150.984 220.44 151.583L220.811 152.321C221.044 152.829 220.858 153.105 220.254 153.244C219.65 153.336 219.278 153.244 219.046 152.967C218.721 152.644 218.396 151.999 217.978 150.984L217.745 150.384C217.374 149.416 216.909 148.678 216.445 148.263C215.98 147.848 215.19 147.663 214.076 147.663V152.321C214.076 152.921 213.704 153.198 213.007 153.198C212.31 153.198 211.939 152.921 211.939 152.321V142.405C211.939 141.806 212.31 141.529 213.007 141.529C213.704 141.529 214.076 141.806 214.076 142.405V146.233ZM229.823 151.537C228.941 152.783 227.64 153.428 225.875 153.428C224.713 153.428 223.784 153.105 223.041 152.506C222.298 151.906 221.926 151.03 221.926 149.923C221.926 147.294 224.109 145.957 228.476 145.957H229.87C229.87 145.265 229.823 144.712 229.684 144.25C229.405 143.466 228.523 143.097 227.036 143.097C226.061 143.097 225.224 143.374 224.528 143.881C224.342 144.02 224.109 144.112 223.877 144.112C223.645 144.112 223.366 144.02 223.134 143.835C222.902 143.697 222.809 143.466 222.809 143.236C222.809 143.005 222.948 142.728 223.273 142.498C224.202 141.806 225.55 141.437 227.361 141.437C229.034 141.437 230.195 141.806 230.892 142.59C231.589 143.374 231.96 144.527 231.96 146.095V150.753C231.96 151.307 232.007 151.768 232.053 152.091C232.146 152.69 231.867 153.013 231.263 153.105C230.52 153.198 230.102 152.921 230.009 152.368C229.87 151.906 229.823 151.63 229.823 151.537ZM229.823 147.617C229.173 147.571 228.662 147.571 228.29 147.571C227.779 147.571 227.315 147.617 226.897 147.663C226.432 147.755 226.014 147.848 225.596 148.032C225.178 148.217 224.806 148.447 224.574 148.816C224.295 149.185 224.202 149.554 224.202 150.062C224.202 150.661 224.388 151.076 224.76 151.399C225.131 151.722 225.642 151.86 226.246 151.86C227.315 151.86 228.197 151.491 228.894 150.799C229.591 149.969 229.916 148.908 229.823 147.617ZM242.226 146.187C243.248 145.957 244.131 145.265 244.828 144.112C244.828 144.112 244.874 144.02 244.967 143.927L245.106 143.651C245.478 142.913 245.757 142.405 246.036 142.083C246.314 141.714 246.732 141.575 247.29 141.621C247.708 141.668 247.94 141.76 248.08 141.944C248.219 142.129 248.172 142.405 247.987 142.728C247.708 143.097 247.522 143.466 247.336 143.881L246.872 144.758C246.314 145.726 245.664 146.418 244.921 146.787C246.082 147.156 246.965 148.124 247.476 149.646C247.801 150.753 248.126 151.676 248.498 152.414C248.73 152.921 248.544 153.198 247.94 153.336C247.383 153.428 246.965 153.336 246.732 153.059C246.407 152.644 246.082 151.952 245.803 150.938L245.664 150.43C245.385 149.462 245.014 148.77 244.549 148.355C244.085 147.894 243.388 147.709 242.366 147.755V152.46C242.366 153.059 241.994 153.336 241.297 153.336C240.6 153.336 240.229 153.059 240.229 152.46V147.755C239.253 147.755 238.557 147.986 238.092 148.447C237.627 148.908 237.209 149.6 236.977 150.43L236.884 150.846C236.605 151.952 236.28 152.69 235.909 153.059C235.676 153.336 235.305 153.428 234.701 153.336C234.097 153.244 233.865 152.921 234.143 152.414C234.469 151.768 234.794 150.846 235.165 149.646C235.676 148.078 236.513 147.11 237.72 146.787C236.931 146.372 236.28 145.726 235.769 144.758L235.398 144.066C234.933 143.236 234.654 142.774 234.654 142.774C234.422 142.405 234.376 142.175 234.515 141.99C234.654 141.806 234.887 141.714 235.305 141.668C235.909 141.621 236.327 141.76 236.605 142.129C236.884 142.544 237.163 143.005 237.442 143.558L237.72 144.158C238.324 145.357 239.207 146.049 240.275 146.233V142.59C240.275 141.99 240.647 141.714 241.344 141.714C242.041 141.714 242.412 141.99 242.412 142.59V146.187H242.226ZM259.972 147.34C259.693 147.617 259.135 147.755 258.299 147.755H252.214C252.214 148.217 252.26 148.632 252.353 149.047C252.446 149.462 252.585 149.877 252.818 150.292C253.05 150.707 253.375 151.076 253.84 151.307C254.304 151.583 254.862 151.676 255.512 151.676C255.93 151.676 256.348 151.583 256.813 151.445C257.277 151.307 257.649 151.03 257.881 150.661C258.16 150.246 258.578 150.062 259.089 150.108C259.461 150.154 259.693 150.292 259.832 150.523C259.925 150.707 259.972 150.938 259.879 151.168C259.6 151.906 259.043 152.46 258.206 152.875C257.324 153.29 256.395 153.474 255.419 153.474C254.444 153.474 253.561 153.29 252.818 152.967C252.075 152.598 251.517 152.137 251.099 151.537C250.681 150.938 250.356 150.338 250.17 149.646C249.984 148.955 249.891 148.263 249.891 147.571C249.891 146.787 249.984 146.095 250.17 145.403C250.356 144.712 250.681 144.066 251.099 143.512C251.517 142.913 252.075 142.452 252.818 142.129C253.561 141.76 254.397 141.621 255.373 141.621C256.952 141.621 258.206 142.083 259.135 143.005C259.972 143.835 260.39 144.942 260.343 146.233C260.39 146.649 260.25 147.064 259.972 147.34ZM257.974 146.187C258.206 146.187 258.346 146.049 258.299 145.818C258.253 144.942 258.021 144.296 257.51 143.789C256.999 143.328 256.302 143.051 255.466 143.051C254.583 143.051 253.84 143.374 253.236 143.974C252.632 144.573 252.307 145.311 252.26 146.141H257.974V146.187ZM267.265 149.462L266.196 147.663L265.128 145.865C265.035 145.68 264.896 145.496 264.849 145.311V152.46C264.849 153.059 264.524 153.336 263.827 153.336C263.177 153.336 262.852 153.059 262.852 152.46V142.544C262.852 141.944 263.223 141.668 264.013 141.668C264.524 141.668 264.942 141.944 265.314 142.452L268.473 147.709L271.631 142.452C271.957 141.944 272.375 141.668 272.932 141.668C273.675 141.668 274.047 141.944 274.047 142.544V152.46C274.047 153.059 273.722 153.336 273.072 153.336C272.421 153.336 272.096 153.059 272.096 152.46V145.265L271.771 145.865L269.588 149.416C269.262 149.923 268.891 150.2 268.473 150.2C267.962 150.246 267.59 149.969 267.265 149.462ZM279.714 150.846C279.947 151.076 280.04 151.445 280.04 151.906C280.04 152.368 279.947 152.737 279.714 153.013C279.482 153.244 279.11 153.382 278.507 153.382C277.903 153.382 277.531 153.244 277.299 153.013C277.113 152.783 276.974 152.414 276.974 151.906C276.974 151.445 277.067 151.076 277.299 150.846C277.531 150.615 277.903 150.477 278.46 150.477C279.11 150.477 279.529 150.615 279.714 150.846Z" fill="#FF6900"/>
<defs>
<clipPath id="clip0_54_731">
<rect width="464.535" height="427.539" fill="white"/>
</clipPath>
</defs>
</svg>
