<svg width="148" height="37" viewBox="0 0 148 37" fill="none" xmlns="http://www.w3.org/2000/svg">
<rect y="0.5" width="36" height="36" rx="5" fill="white" fill-opacity="0.2"/>
<path d="M29.2547 13.0702C29.4216 12.5242 29.2547 12.1225 28.4599 12.1225H25.8351C25.5899 12.1062 25.3459 12.1685 25.1398 12.3001C24.9338 12.4316 24.7768 12.6252 24.6926 12.8518C24.6926 12.8518 23.3574 16.0457 21.4658 18.1164C20.8538 18.717 20.5756 18.9081 20.2418 18.9081C20.0749 18.9081 19.8245 18.7131 19.8245 18.171V13.0702C19.8245 12.415 19.6397 12.1225 19.0834 12.1225H14.9584C14.7909 12.1135 14.6266 12.17 14.5014 12.2796C14.3763 12.3893 14.3006 12.5431 14.2908 12.7075C14.2908 13.3295 15.2366 13.4718 15.334 15.2189V19.0192C15.334 19.8518 15.181 19.9941 14.8472 19.9941C13.957 19.9941 11.7912 16.7866 10.5076 13.115C10.2553 12.4014 10.0029 12.1128 9.33333 12.1128H6.70655C5.95548 12.1128 5.80646 12.4599 5.80646 12.842C5.80646 13.5245 6.69662 16.9095 9.95127 21.3863C12.121 24.4437 15.177 26.1011 17.9588 26.1011C19.6278 26.1011 19.8345 25.7326 19.8345 25.0989V22.7961C19.8345 22.059 19.9934 21.9128 20.5219 21.9128C20.9193 21.9128 21.579 22.1078 23.1368 23.578C24.9251 25.3328 25.2112 26.1128 26.2126 26.1128H28.8374C29.5885 26.1128 29.962 25.7443 29.7455 25.0189C29.5289 24.2936 28.6586 23.2445 27.53 22.0005C26.918 21.2908 26 20.5264 25.7218 20.1443C25.3245 19.6529 25.4437 19.4345 25.7218 18.9978C25.7218 18.9919 28.9209 14.5696 29.2547 13.0702Z" fill="#CDCDCD"/>
<rect x="56" y="0.5" width="36" height="36" rx="5" fill="white" fill-opacity="0.2"/>
<path d="M74.5031 9.5C69.4011 9.5 64.3014 9.88846 63.1808 10.6631C60.9397 12.2147 60.9397 24.791 63.1808 26.338C65.422 27.8851 83.5843 27.8896 85.8209 26.338C88.0574 24.7864 88.062 12.2102 85.8209 10.6631C84.7003 9.88619 79.5983 9.5 74.4986 9.5H74.5031ZM71.9167 14.7409L78.48 18.5051L71.9167 22.2694V14.7409Z" fill="#ADADAD"/>
<rect x="112" y="0.5" width="36" height="36" rx="5" fill="white" fill-opacity="0.2"/>
<path d="M128.349 24.1688C128.491 24.0287 128.398 23.7829 128.2 23.7577C126.328 23.5198 124.634 23.0101 123.166 21.8899C122.968 21.7385 122.764 21.5925 122.583 21.4234C121.885 20.7694 121.815 20.0203 122.367 19.2483C122.839 18.5877 123.633 18.411 124.457 18.7903C124.617 18.8638 124.769 18.9556 124.914 19.0542C127.886 21.0466 131.969 21.1016 134.951 19.1437C135.247 18.9226 135.563 18.7424 135.929 18.6503C136.641 18.472 137.305 18.7271 137.687 19.3349C138.123 20.029 138.118 20.7065 137.58 21.2454C136.755 22.0715 135.763 22.6692 134.661 23.0864C133.776 23.421 132.82 23.6146 131.861 23.7461C131.649 23.7751 131.551 24.0358 131.704 24.1857C133.239 25.6899 134.78 27.1878 136.309 28.6966C136.83 29.2107 136.939 29.8482 136.652 30.4462C136.338 31.0997 135.636 31.5296 134.948 31.4836C134.511 31.4542 134.171 31.2424 133.869 30.9453C132.711 29.8084 131.532 28.6925 130.397 27.5342C130.067 27.1973 129.908 27.261 129.617 27.5535C128.452 28.7236 127.268 29.8757 126.077 31.0213C125.543 31.5356 124.906 31.6282 124.286 31.3344C123.627 31.0226 123.208 30.3661 123.24 29.7063C123.263 29.26 123.487 28.9191 123.801 28.6133C125.32 27.1339 126.834 25.6507 128.349 24.1688Z" fill="#CDCDCD"/>
<path d="M129.947 18.6601C126.262 18.6478 123.24 15.6669 123.261 12.0655C123.283 8.42427 126.306 5.48995 130.028 5.50003C133.757 5.50983 136.75 8.48635 136.731 12.1654C136.712 15.7595 133.669 18.6726 129.947 18.6601ZM133.296 12.0742C133.289 10.286 131.83 8.8624 130.001 8.86077C128.156 8.85886 126.684 10.3083 126.698 12.1129C126.712 13.8943 128.184 15.3078 130.018 15.3012C131.846 15.295 133.302 13.8621 133.296 12.0742Z" fill="#CDCDCD"/>
</svg>
