<svg width="263" height="55" viewBox="0 0 263 55" fill="none" xmlns="http://www.w3.org/2000/svg">
<rect width="55" height="55" rx="15" fill="#FF5200"/>
<path d="M6.61564 20C6.61564 20 4.33132 21.4267 4.06871 22.8493C3.8061 24.276 4.33132 25.9592 5.0483 27.0592C5.76527 28.1592 6.61564 29.069 7.66192 29.4577C8.7082 29.8465 9.62109 29.7803 9.62109 29.7803C9.62109 29.7803 12.0388 32.5014 16.3448 36.1944C20.6508 39.8873 26.1407 44.2915 32.3433 47.724C38.546 51.1564 40.7678 52 42.4643 52C44.1609 52 44.0984 49.4732 43.9024 48.6958C43.7065 47.9183 32.8018 35.8718 32.8018 35.8718L6.61564 20Z" fill="#FF8E00"/>
<path d="M11.1021 26L9.47338 24.2661C9.47338 24.2661 7.7823 21.1182 6.22003 21.1182C4.65776 21.1182 4.00542 22.5938 4.00542 22.5938C4.00542 22.5938 3.81014 20.987 5.76298 17.9087C7.71582 14.8304 10.188 12.3874 12.4026 10.8462C14.6172 9.30498 17.3471 7.50554 19.1711 6.4808C20.9951 5.45606 24.9631 4.16899 27.2442 3.39839C29.5211 2.62779 34.4697 1.66453 36.7467 2.11542C39.0236 2.5663 40 4.10751 40 5.7102C40 7.31289 39.6094 8.40731 39.2853 8.72703C38.9613 9.04674 36.8131 10.8462 36.8131 10.8462L11.1021 26Z" fill="#F5B03E"/>
<path d="M15.7086 19.5378L11.6861 22.1587L10 25.4985C10 25.4985 10.3231 26.6104 10.8451 27.1998C11.3629 27.7892 15.7086 31.9901 18.8198 34.6737C21.2474 36.7679 26.4217 41.2112 26.4217 41.2112C26.4217 41.2112 26.6329 43.4434 26.8774 45.0109C27.0721 46.2565 27.0845 48.334 28.3853 48.2755C30.0258 48.2002 29.0813 44.8478 30.3821 44.8813C32.9796 44.9482 30.4028 52.0375 33.195 51.9999C35.4196 51.9706 34.0069 48.0957 35.1213 47.4353C35.7262 47.0758 36.9276 48.6015 38.887 49.4668C41.3064 50.5327 42.7812 51.3394 43.56 50.9716C45.2047 50.1941 41.7372 32.0653 41.3478 28.9888C40.9584 25.9124 39.0196 10.1119 38.887 9.58938C38.7545 9.06688 36.0949 9 36.0949 9L32.006 10.4421L26.1648 11.2279L19.2879 15.3536L15.7086 19.5378Z" fill="#FFCC8A"/>
<path d="M15.2597 18.769C14.0196 19.4714 12.4211 19.863 11.0723 22.0912C9.949 23.948 9.65105 25.8492 10.4523 25.9946C11.2535 26.1399 11.8615 23.3385 12.9285 22.2728C14.6396 20.5573 16.0247 20.3756 17.0071 19.4633C17.9895 18.5511 19.0645 16.0726 23.1593 13.8807C27.9304 11.3255 30.7811 11.9997 31.8964 11.5799C33.3539 11.0309 33.7484 10.1347 35.5724 9.75531C37.501 9.35569 38.8417 10.1267 38.8417 10.1267C38.8417 10.1267 39.2806 9.10542 38.6968 8.6291C38.113 8.15278 37.0379 7.78141 35.2422 8.14874C33.2774 8.54837 31.8199 9.8643 31.4212 9.90063C31.0226 9.93696 26.944 9.71898 22.1004 12.4921C17.2567 15.2653 16.3508 18.1474 15.2597 18.769Z" fill="#CB6C22"/>
<path d="M20.9052 23.4689L14.0607 24.8292C14.0607 24.8292 13.9549 26.0122 14.0226 26.3629C14.2511 27.546 15.9727 29.4304 17.0049 29.7425C18.0371 30.0546 20.1395 30.0893 20.829 29.8119C21.5185 29.5344 23.5829 28.1741 23.8494 27.4419C24.1159 26.7097 24.044 23.6461 23.511 23.1567C22.978 22.6712 20.9052 23.4689 20.9052 23.4689Z" fill="#DB0D27"/>
<path d="M16.0976 20.8436C15.3425 21.4156 13.8889 23.3538 14.0068 24.7412C14.1246 26.1329 16.5734 28.562 17.2413 28.7925C17.9091 29.0231 20.0829 29.0615 20.6373 28.9078C21.1916 28.7541 23.3218 27.2087 23.6361 26.6708C23.9503 26.1286 24.2297 23.119 23.7146 22.5811C23.1996 22.0432 21.6631 20.4593 20.4408 20.1093C19.2143 19.7635 16.8091 20.3014 16.0976 20.8436Z" fill="#DB0D27"/>
<path d="M33.0527 27.2215C33.0527 27.2215 27.1601 26.7642 27.0861 27.1637C27.012 27.5633 26.8762 29.1081 27.2507 30.3511C27.514 31.2345 28.1436 32.7615 30.0776 33.6405C32.0116 34.5195 33.8715 33.5606 34.3571 33.1566C35.2665 32.402 35.8467 31.4697 35.9948 30.9104C36.143 30.3511 33.0527 27.2215 33.0527 27.2215Z" fill="#DB0D27"/>
<path d="M30.0495 24.1999C29.163 24.5488 27.041 25.9748 27.0009 27.5535C26.9648 29.1323 28.0158 31.0642 28.5613 31.496C29.1068 31.9277 30.92 33.0747 32.2597 32.9962C33.6035 32.9177 35.4528 31.7358 35.7055 31.1035C35.9582 30.4711 36.0665 28.6177 35.9582 27.6713C35.8499 26.7249 33.9646 24.5967 33.0219 24.2784C32.0792 23.9644 30.8478 23.8859 30.0495 24.1999Z" fill="#DB0D27"/>
<path d="M29.7183 38.3514C29.7183 38.3514 24.6875 36.8973 24.6184 37.0058C24.5494 37.1142 23.8548 38.022 24.0275 38.4598C24.2002 38.8977 25.9692 40.3838 26.6983 41.0386C27.4274 41.6933 29.6301 43.0469 29.891 42.9987C30.5165 42.8903 31 41.8379 31 41.8379L29.7183 38.3514Z" fill="#DB0D27"/>
<path d="M30.2494 35.8363C28.8948 34.7662 26.9181 34.8481 25.8472 35.3855C24.7763 35.9228 24.1244 36.6195 24.0101 37.1569C23.8958 37.6942 24.7805 38.7279 25.1276 39.0148C25.4705 39.3017 26.5117 40.1487 26.5117 40.1487C26.5117 40.1487 28.0567 41.451 28.6282 41.9246C29.4239 42.5849 30.4229 42.9583 30.6896 42.9993C30.9562 43.0403 32.2007 41.3099 31.9721 39.0011C31.8536 37.8217 31.388 36.7379 30.2494 35.8363Z" fill="#DB0D27"/>
<path d="M40.1506 33.0713L38.3972 33C38.3972 33 37.6822 34.4695 38.1708 36.1173C38.5697 37.464 39.4069 38.2681 40.801 38.6959C42.1987 39.1276 42.9784 38.9731 42.9784 38.9731L43 37.8918L40.1506 33.0713Z" fill="#DB0D27"/>
<path d="M41.793 31.011C41.793 31.011 39.5777 30.7432 38.4332 32.8513C37.5574 34.4692 38.1683 35.8192 38.8675 36.6037C39.5666 37.3881 40.6301 37.9009 41.4287 37.9688C42.2272 38.0367 43 37.9726 43 37.9726C43 37.9726 42.6909 35.8796 42.3891 34.1298C42.2051 33.0814 41.793 31.011 41.793 31.011Z" fill="#DB0D27"/>
<path d="M34.8544 14C34.8544 14 29.5992 14.1459 29.2702 14.6241C28.9412 15.1023 28.9457 17.2257 29.1079 18.0686C29.2702 18.9115 30.6989 20.9621 33.5519 20.9985C36.4048 21.035 37.4099 20.3947 38.5186 18.4577C39.6274 16.5206 38.4736 14.3526 38.4736 14.3526L34.8544 14Z" fill="#DB0D27"/>
<path d="M34.649 12.0502C33.7076 11.8533 32.3941 12.2672 31.754 12.7414C31.114 13.2156 30.0721 14.1961 30.0051 14.9234C29.9382 15.6508 30.5447 17.7565 30.7791 18.1583C31.0135 18.5561 31.9885 19.6371 32.2936 19.7938C33.0006 20.1555 34.9504 19.9747 35.5235 19.7577C36.0965 19.5407 37.678 18.1583 37.8454 17.431C38.0129 16.7036 38.2138 15.4699 37.4398 13.9791C36.6658 12.4882 35.5235 12.2351 34.649 12.0502Z" fill="#DB0D27"/>
<path d="M41.4907 43.1942L37.4145 43C37.4145 43 36.8663 44.2127 37.0308 45.2744C37.1639 46.1548 37.8256 47.3546 39.0121 47.8595C39.6856 48.1444 41.4476 47.9588 41.8783 47.6351C42.7476 46.9791 43.0256 45.788 42.9982 45.1751C42.9864 44.8558 41.4907 43.1942 41.4907 43.1942Z" fill="#DB0D27"/>
<path d="M40.4346 42.0254C39.3424 41.877 38.0844 42.4055 37.5424 42.9086C37.0003 43.4117 36.8911 44.0415 37.0974 44.8017C37.4736 46.1916 38.4687 46.5861 38.9298 46.7997C39.6134 47.1146 41.4903 47.0531 42.0809 46.6513C42.6674 46.2531 43.1124 45.5726 42.9749 44.5266C42.8333 43.4769 42.3155 42.2788 40.4346 42.0254Z" fill="#DB0D27"/>
<path d="M13.0006 13.1831C13.0384 14.1848 14.6247 14.0132 15.25 13.9436C15.7494 13.888 17 13.772 17 12.8724C17 11.9728 15.9089 11.9774 15.0947 12.0099C14.31 12.0423 12.967 12.3901 13.0006 13.1831Z" fill="#FCC12B"/>
<path d="M22 7.99748C22 8.86119 22.6441 8.94635 23.0447 8.99501C23.4452 9.03759 23.9655 8.81253 23.9985 8.13738C24.0274 7.45614 23.631 7.04862 23.0447 7.00604C22.4294 6.9513 22 7.26759 22 7.99748Z" fill="#FCC12B"/>
<path d="M26.1426 9.69766C26.68 10.5377 27.4841 9.41585 27.7659 8.89017C28.044 8.36449 28.1004 7.557 27.7922 7.15596C27.4841 6.75493 26.8979 7.1939 26.5071 7.71958C26.1163 8.24526 25.8082 9.17198 26.1426 9.69766Z" fill="#FCC12B"/>
<path d="M32.1154 5.75299C32.7997 6.54668 33.9284 5.21312 34.3964 4.76188C34.8644 4.31064 35.2459 3.68213 34.8054 3.17449C34.3649 2.66685 33.3699 3.384 32.9924 3.83523C32.6109 4.28244 31.6749 5.24535 32.1154 5.75299Z" fill="#FCC12B"/>
<path d="M9.58609 19.976C10.473 20.1612 10.7617 19.2353 10.9139 18.527C11.0713 17.8048 11.0713 17.115 10.4048 17.0132C9.64907 16.8974 9.23447 17.5641 9.11376 18.2168C9.01405 18.8048 8.76739 19.8047 9.58609 19.976Z" fill="#FCC12B"/>
<path d="M69.7372 21.4119L75.2358 11.7273H79.4119V27H75.375V17.2855L69.8963 27H65.6903V11.7273H69.7372V21.4119ZM74.5099 6.39773H77.4631C77.4564 7.60417 77.009 8.57528 76.1207 9.31108C75.2391 10.0469 74.0459 10.4148 72.5412 10.4148C71.0298 10.4148 69.8333 10.0469 68.9517 9.31108C68.0701 8.57528 67.6293 7.60417 67.6293 6.39773H70.5625C70.5559 6.85511 70.7017 7.2661 71 7.63068C71.3049 7.99526 71.8187 8.17756 72.5412 8.17756C73.2438 8.17756 73.7476 7.99858 74.0526 7.64062C74.3575 7.28267 74.5099 6.86837 74.5099 6.39773ZM89.7081 27.2983C88.1636 27.2983 86.8279 26.9702 85.701 26.3139C84.5807 25.651 83.7157 24.7296 83.1058 23.5497C82.496 22.3632 82.1911 20.9877 82.1911 19.4233C82.1911 17.8456 82.496 16.4669 83.1058 15.2869C83.7157 14.1004 84.5807 13.179 85.701 12.5227C86.8279 11.8598 88.1636 11.5284 89.7081 11.5284C91.2526 11.5284 92.585 11.8598 93.7053 12.5227C94.8321 13.179 95.7005 14.1004 96.3104 15.2869C96.9202 16.4669 97.2251 17.8456 97.2251 19.4233C97.2251 20.9877 96.9202 22.3632 96.3104 23.5497C95.7005 24.7296 94.8321 25.651 93.7053 26.3139C92.585 26.9702 91.2526 27.2983 89.7081 27.2983ZM89.728 24.017C90.4306 24.017 91.0173 23.8182 91.4879 23.4205C91.9586 23.0161 92.3132 22.4659 92.5518 21.7699C92.7971 21.0739 92.9197 20.2817 92.9197 19.3935C92.9197 18.5052 92.7971 17.7131 92.5518 17.017C92.3132 16.321 91.9586 15.7708 91.4879 15.3665C91.0173 14.9621 90.4306 14.7599 89.728 14.7599C89.0187 14.7599 88.4221 14.9621 87.9382 15.3665C87.4609 15.7708 87.0997 16.321 86.8544 17.017C86.6158 17.7131 86.4964 18.5052 86.4964 19.3935C86.4964 20.2817 86.6158 21.0739 86.8544 21.7699C87.0997 22.4659 87.4609 23.0161 87.9382 23.4205C88.4221 23.8182 89.0187 24.017 89.728 24.017ZM102.102 32.7273C101.565 32.7273 101.062 32.6842 100.591 32.598C100.127 32.5185 99.7424 32.4157 99.4375 32.2898L100.392 29.1278C100.889 29.2803 101.337 29.3632 101.734 29.3764C102.139 29.3897 102.487 29.2969 102.778 29.098C103.077 28.8991 103.319 28.5611 103.504 28.0838L103.753 27.4375L98.2741 11.7273H102.729L105.891 22.9432H106.05L109.241 11.7273H113.726L107.79 28.6506C107.505 29.4725 107.117 30.1884 106.626 30.7983C106.143 31.4148 105.529 31.8887 104.787 32.2202C104.045 32.5582 103.15 32.7273 102.102 32.7273ZM122.374 27V11.7273H135.728V27H131.681V15.0582H126.371V27H122.374ZM143.155 21.4119L148.654 11.7273H152.83V27H148.793V17.2855L143.314 27H139.108V11.7273H143.155V21.4119ZM169.579 11.7273V24.0767H172.015V31.9119H167.899V27H156.225V11.7273H160.272V23.669H165.582V11.7273H169.579ZM187.982 11.7273V24.0767H190.418V31.9119H186.301V27H174.628V11.7273H178.675V23.669H183.984V11.7273H187.982ZM197.385 27.2884C196.411 27.2884 195.542 27.1193 194.78 26.7812C194.018 26.4366 193.415 25.9295 192.971 25.2599C192.533 24.5838 192.314 23.742 192.314 22.7344C192.314 21.8859 192.47 21.1733 192.782 20.5966C193.093 20.0199 193.517 19.5559 194.054 19.2045C194.591 18.8532 195.201 18.5881 195.884 18.4091C196.573 18.2301 197.296 18.1042 198.051 18.0312C198.94 17.9384 199.656 17.8523 200.199 17.7727C200.743 17.6866 201.137 17.5606 201.382 17.3949C201.628 17.2292 201.75 16.9839 201.75 16.6591V16.5994C201.75 15.9697 201.551 15.4825 201.154 15.1378C200.763 14.7931 200.206 14.6207 199.483 14.6207C198.721 14.6207 198.114 14.7898 197.664 15.1278C197.213 15.4593 196.915 15.8769 196.769 16.3807L192.851 16.0625C193.05 15.1345 193.441 14.3324 194.025 13.6562C194.608 12.9735 195.36 12.4498 196.282 12.0852C197.21 11.714 198.283 11.5284 199.503 11.5284C200.352 11.5284 201.164 11.6278 201.939 11.8267C202.721 12.0256 203.414 12.3338 204.017 12.7514C204.627 13.169 205.108 13.706 205.459 14.3622C205.81 15.0118 205.986 15.7907 205.986 16.6989V27H201.969V24.8821H201.85C201.605 25.3594 201.276 25.7803 200.865 26.1449C200.454 26.5028 199.961 26.7846 199.384 26.9901C198.807 27.1889 198.141 27.2884 197.385 27.2884ZM198.598 24.3651C199.221 24.3651 199.772 24.2424 200.249 23.9972C200.726 23.7453 201.101 23.4072 201.373 22.983C201.644 22.5587 201.78 22.0781 201.78 21.5412V19.9205C201.648 20.0066 201.465 20.0862 201.233 20.1591C201.008 20.2254 200.753 20.2884 200.468 20.348C200.183 20.401 199.898 20.4508 199.613 20.4972C199.328 20.5369 199.069 20.5734 198.837 20.6065C198.34 20.6795 197.906 20.7955 197.534 20.9545C197.163 21.1136 196.875 21.3291 196.669 21.6009C196.464 21.866 196.361 22.1974 196.361 22.5952C196.361 23.1719 196.57 23.6127 196.988 23.9176C197.412 24.2159 197.949 24.3651 198.598 24.3651Z" fill="black"/>
<path d="M71.9943 46H71.1932C71.1335 45.7017 71.0256 45.4261 70.8693 45.1733C70.7159 44.9176 70.5227 44.6946 70.2898 44.5043C70.0568 44.3139 69.7926 44.1662 69.4972 44.0611C69.2017 43.956 68.8821 43.9034 68.5384 43.9034C67.9872 43.9034 67.4844 44.0469 67.0298 44.3338C66.5781 44.6207 66.2159 45.0426 65.9432 45.5994C65.6733 46.1534 65.5384 46.8324 65.5384 47.6364C65.5384 48.446 65.6733 49.1278 65.9432 49.6818C66.2159 50.2358 66.5781 50.6562 67.0298 50.9432C67.4844 51.2273 67.9872 51.3693 68.5384 51.3693C68.8821 51.3693 69.2017 51.3168 69.4972 51.2116C69.7926 51.1065 70.0568 50.9602 70.2898 50.7727C70.5227 50.5824 70.7159 50.3594 70.8693 50.1037C71.0256 49.848 71.1335 49.571 71.1932 49.2727H71.9943C71.9233 49.6733 71.7898 50.0469 71.5938 50.3935C71.4006 50.7372 71.1534 51.0384 70.8523 51.2969C70.554 51.5554 70.2102 51.7571 69.821 51.902C69.4318 52.0469 69.0043 52.1193 68.5384 52.1193C67.8054 52.1193 67.1548 51.9361 66.5866 51.5696C66.0185 51.2003 65.5724 50.6804 65.2486 50.0099C64.9276 49.3395 64.767 48.5483 64.767 47.6364C64.767 46.7244 64.9276 45.9332 65.2486 45.2628C65.5724 44.5923 66.0185 44.0739 66.5866 43.7074C67.1548 43.3381 67.8054 43.1534 68.5384 43.1534C69.0043 43.1534 69.4318 43.2259 69.821 43.3707C70.2102 43.5128 70.554 43.7145 70.8523 43.9759C71.1534 44.2344 71.4006 44.5355 71.5938 44.8793C71.7898 45.223 71.9233 45.5966 71.9943 46ZM76.3548 52.1364C75.744 52.1364 75.2156 51.9943 74.7695 51.7102C74.3235 51.4233 73.9783 51.027 73.734 50.5213C73.4925 50.0128 73.3718 49.4276 73.3718 48.7656C73.3718 48.1065 73.4925 47.5213 73.734 47.0099C73.9783 46.4957 74.315 46.0937 74.744 45.804C75.1758 45.5114 75.6744 45.3651 76.2397 45.3651C76.5948 45.3651 76.9371 45.4304 77.2667 45.5611C77.5962 45.6889 77.8917 45.8864 78.1531 46.1534C78.4173 46.4176 78.6261 46.7514 78.7795 47.1548C78.9329 47.5554 79.0096 48.0298 79.0096 48.5781V48.9531H73.896V48.2841H78.234C78.234 47.8636 78.1488 47.4858 77.9783 47.1506C77.8107 46.8125 77.5763 46.5455 77.2752 46.3494C76.9769 46.1534 76.6317 46.0554 76.2397 46.0554C75.8249 46.0554 75.4599 46.1662 75.1445 46.3878C74.8292 46.6094 74.582 46.902 74.4031 47.2656C74.2269 47.6293 74.1374 48.027 74.1346 48.4588V48.8594C74.1346 49.3793 74.2241 49.8338 74.4031 50.223C74.5849 50.6094 74.842 50.9091 75.1744 51.1222C75.5067 51.3352 75.9002 51.4418 76.3548 51.4418C76.6644 51.4418 76.9357 51.3935 77.1687 51.2969C77.4045 51.2003 77.6019 51.071 77.761 50.9091C77.9229 50.7443 78.0451 50.5639 78.1275 50.3679L78.8477 50.6023C78.7482 50.8778 78.5849 51.1321 78.3576 51.3651C78.1332 51.598 77.8519 51.7855 77.5138 51.9276C77.1786 52.0668 76.7923 52.1364 76.3548 52.1364ZM80.0462 46.1705V45.4545H85.1598V46.1705H82.995V52H82.2365V46.1705H80.0462ZM87.3938 47.9815H89.3072C90.043 47.9815 90.6112 48.1605 91.0117 48.5185C91.4123 48.8764 91.6126 49.3608 91.6126 49.9716C91.6126 50.3778 91.5231 50.733 91.3441 51.0369C91.1651 51.3409 90.9038 51.5781 90.56 51.7486C90.2163 51.9162 89.7987 52 89.3072 52H86.7631V45.4545H87.5217V51.2841H89.3072C89.7702 51.2841 90.1438 51.1733 90.4279 50.9517C90.712 50.7301 90.854 50.4148 90.854 50.0057C90.854 49.5881 90.712 49.2656 90.4279 49.0384C90.1438 48.8111 89.7702 48.6974 89.3072 48.6974H87.3938V47.9815ZM96.6623 52V45.4545H101.618V52H100.855V46.1705H97.4251V52H96.6623ZM104.385 50.9219L107.841 45.4545H108.749V52H107.99V46.5327L104.547 52H103.626V45.4545H104.385V50.9219ZM115.716 45.4545V51.2798H116.411V54.1179H115.652V52H110.76V45.4545H111.523V51.2841H114.953V45.4545H115.716ZM122.993 45.4545V51.2798H123.688V54.1179H122.929V52H118.037V45.4545H118.8V51.2841H122.23V45.4545H122.993ZM127.882 52.1364C127.271 52.1364 126.743 51.9943 126.297 51.7102C125.851 51.4233 125.506 51.027 125.261 50.5213C125.02 50.0128 124.899 49.4276 124.899 48.7656C124.899 48.1065 125.02 47.5213 125.261 47.0099C125.506 46.4957 125.842 46.0937 126.271 45.804C126.703 45.5114 127.202 45.3651 127.767 45.3651C128.122 45.3651 128.464 45.4304 128.794 45.5611C129.124 45.6889 129.419 45.8864 129.68 46.1534C129.945 46.4176 130.153 46.7514 130.307 47.1548C130.46 47.5554 130.537 48.0298 130.537 48.5781V48.9531H125.423V48.2841H129.761C129.761 47.8636 129.676 47.4858 129.506 47.1506C129.338 46.8125 129.104 46.5455 128.803 46.3494C128.504 46.1534 128.159 46.0554 127.767 46.0554C127.352 46.0554 126.987 46.1662 126.672 46.3878C126.357 46.6094 126.109 46.902 125.93 47.2656C125.754 47.6293 125.665 48.027 125.662 48.4588V48.8594C125.662 49.3793 125.751 49.8338 125.93 50.223C126.112 50.6094 126.369 50.9091 126.702 51.1222C127.034 51.3352 127.428 51.4418 127.882 51.4418C128.192 51.4418 128.463 51.3935 128.696 51.2969C128.932 51.2003 129.129 51.071 129.288 50.9091C129.45 50.7443 129.572 50.5639 129.655 50.3679L130.375 50.6023C130.276 50.8778 130.112 51.1321 129.885 51.3651C129.661 51.598 129.379 51.7855 129.041 51.9276C128.706 52.0668 128.32 52.1364 127.882 52.1364ZM132.208 54.4545V45.4545H132.946V46.7031H133.035C133.126 46.5071 133.251 46.3068 133.41 46.1023C133.569 45.8949 133.779 45.7202 134.041 45.5781C134.305 45.4361 134.637 45.3651 135.038 45.3651C135.578 45.3651 136.049 45.5071 136.453 45.7912C136.859 46.0724 137.174 46.4673 137.399 46.9759C137.626 47.4815 137.74 48.071 137.74 48.7443C137.74 49.4205 137.626 50.0128 137.399 50.5213C137.174 51.0298 136.859 51.4261 136.453 51.7102C136.049 51.9943 135.581 52.1364 135.047 52.1364C134.652 52.1364 134.321 52.0653 134.054 51.9233C133.789 51.7812 133.575 51.6065 133.41 51.3991C133.248 51.1889 133.123 50.9844 133.035 50.7855H132.967V54.4545H132.208ZM132.958 48.7315C132.958 49.2599 133.037 49.7287 133.193 50.1378C133.352 50.544 133.579 50.8636 133.875 51.0966C134.173 51.3267 134.534 51.4418 134.957 51.4418C135.392 51.4418 135.758 51.3224 136.056 51.0838C136.358 50.8423 136.586 50.517 136.743 50.108C136.902 49.6989 136.981 49.2401 136.981 48.7315C136.981 48.2287 136.903 47.7756 136.747 47.3722C136.593 46.9687 136.366 46.6491 136.065 46.4134C135.764 46.1747 135.395 46.0554 134.957 46.0554C134.531 46.0554 134.169 46.1705 133.87 46.4006C133.572 46.6278 133.345 46.9432 133.189 47.3466C133.035 47.7472 132.958 48.2088 132.958 48.7315ZM140.162 50.9219L143.618 45.4545H144.526V52H143.767V46.5327L140.324 52H139.404V45.4545H140.162V50.9219ZM147.287 50.9219L150.743 45.4545H151.651V52H150.892V46.5327L147.449 52H146.529V45.4545H147.287V50.9219ZM149.874 43.2727H150.59C150.59 43.679 150.455 44.0085 150.185 44.2614C149.918 44.5142 149.553 44.6406 149.09 44.6406C148.632 44.6406 148.27 44.5142 148.003 44.2614C147.736 44.0085 147.603 43.679 147.603 43.2727H148.319C148.319 43.4943 148.378 43.6818 148.498 43.8352C148.62 43.9858 148.817 44.0611 149.09 44.0611C149.363 44.0611 149.561 43.9858 149.686 43.8352C149.811 43.6818 149.874 43.4943 149.874 43.2727ZM157.186 52V43.2727H158.026L162.219 50.5554H162.287V43.2727H163.071V52H162.232L158.051 44.7514H157.983V52H157.186ZM164.12 49.2429V48.5739H167.819V49.2429H164.12ZM165.961 47.7344C165.551 47.7344 165.195 47.6506 164.891 47.483C164.59 47.3153 164.355 47.0781 164.188 46.7713C164.023 46.4616 163.941 46.0952 163.941 45.6719V45.1946C163.941 44.7713 164.023 44.4062 164.188 44.0994C164.355 43.7898 164.59 43.5511 164.891 43.3835C165.192 43.2131 165.546 43.1293 165.952 43.1321C166.361 43.1321 166.715 43.2159 167.013 43.3835C167.314 43.5511 167.547 43.7898 167.712 44.0994C167.877 44.4062 167.959 44.7713 167.959 45.1946V45.6719C167.959 46.0923 167.877 46.4574 167.712 46.767C167.55 47.0767 167.319 47.3153 167.017 47.483C166.719 47.6506 166.367 47.7344 165.961 47.7344ZM165.961 47.0781C166.344 47.0781 166.644 46.9545 166.86 46.7074C167.078 46.4602 167.188 46.125 167.188 45.7017V45.1605C167.188 44.7457 167.078 44.4162 166.86 44.1719C166.644 43.9247 166.341 43.8011 165.952 43.8011C165.563 43.8011 165.259 43.9233 165.04 44.1676C164.824 44.4119 164.716 44.7429 164.716 45.1605V45.7017C164.716 46.125 164.826 46.4602 165.044 46.7074C165.263 46.9545 165.569 47.0781 165.961 47.0781ZM172.688 43.2727V52H171.891V44.108H171.84L169.795 45.4673V44.6406L171.857 43.2727H172.688ZM178.744 52V45.4545H181.322C182.018 45.4545 182.566 45.6051 182.967 45.9062C183.37 46.2074 183.572 46.6136 183.572 47.125C183.572 47.5142 183.46 47.8253 183.235 48.0582C183.011 48.2912 182.71 48.456 182.332 48.5526C182.585 48.5952 182.819 48.6875 183.035 48.8295C183.254 48.9716 183.431 49.1591 183.567 49.392C183.704 49.625 183.772 49.9034 183.772 50.2273C183.772 50.5682 183.687 50.8722 183.516 51.1392C183.346 51.4062 183.106 51.6165 182.796 51.7699C182.487 51.9233 182.12 52 181.697 52H178.744ZM179.468 51.2969H181.697C182.097 51.2969 182.414 51.1946 182.647 50.9901C182.88 50.7827 182.996 50.5071 182.996 50.1634C182.996 49.7969 182.886 49.5043 182.664 49.2855C182.445 49.0639 182.151 48.9531 181.782 48.9531H179.468V51.2969ZM179.468 48.2798H181.369C181.664 48.2798 181.92 48.2344 182.136 48.1435C182.352 48.0526 182.518 47.9247 182.634 47.7599C182.754 47.5923 182.812 47.3963 182.809 47.1719C182.809 46.8509 182.678 46.6023 182.417 46.4261C182.156 46.2472 181.79 46.1577 181.322 46.1577H179.468V48.2798ZM188.968 52V43.2727H191.784C192.404 43.2727 192.921 43.392 193.336 43.6307C193.753 43.8665 194.067 44.1875 194.277 44.5938C194.49 45 194.597 45.4574 194.597 45.9659C194.597 46.4744 194.492 46.9332 194.282 47.3423C194.071 47.7486 193.759 48.071 193.344 48.3097C192.929 48.5455 192.414 48.6634 191.797 48.6634H189.581V47.9474H191.776C192.233 47.9474 192.613 47.8622 192.914 47.6918C193.215 47.5185 193.439 47.2827 193.587 46.9844C193.738 46.6861 193.813 46.3466 193.813 45.9659C193.813 45.5852 193.738 45.2457 193.587 44.9474C193.439 44.6491 193.213 44.4148 192.909 44.2443C192.608 44.0739 192.226 43.9886 191.763 43.9886H189.765V52H188.968ZM198.784 52.1364C198.218 52.1364 197.718 51.9929 197.284 51.706C196.852 51.419 196.514 51.0227 196.27 50.517C196.025 50.0085 195.903 49.4219 195.903 48.7571C195.903 48.0866 196.025 47.4972 196.27 46.9886C196.514 46.4773 196.852 46.0795 197.284 45.7955C197.718 45.5085 198.218 45.3651 198.784 45.3651C199.349 45.3651 199.848 45.5085 200.279 45.7955C200.711 46.0824 201.049 46.4801 201.294 46.9886C201.541 47.4972 201.664 48.0866 201.664 48.7571C201.664 49.4219 201.542 50.0085 201.298 50.517C201.054 51.0227 200.714 51.419 200.279 51.706C199.848 51.9929 199.349 52.1364 198.784 52.1364ZM198.784 51.4418C199.238 51.4418 199.623 51.3196 199.939 51.0753C200.254 50.831 200.493 50.5057 200.654 50.0994C200.819 49.6932 200.902 49.2457 200.902 48.7571C200.902 48.2685 200.819 47.8196 200.654 47.4105C200.493 47.0014 200.254 46.6733 199.939 46.4261C199.623 46.179 199.238 46.0554 198.784 46.0554C198.332 46.0554 197.947 46.179 197.629 46.4261C197.314 46.6733 197.074 47.0014 196.909 47.4105C196.747 47.8196 196.666 48.2685 196.666 48.7571C196.666 49.2457 196.747 49.6932 196.909 50.0994C197.074 50.5057 197.314 50.831 197.629 51.0753C197.944 51.3196 198.329 51.4418 198.784 51.4418ZM205.886 52.1364C205.301 52.1364 204.791 51.9901 204.357 51.6974C203.925 51.4048 203.589 51.0043 203.351 50.4957C203.112 49.9872 202.993 49.4077 202.993 48.7571C202.993 48.1009 203.114 47.517 203.355 47.0057C203.599 46.4943 203.938 46.0937 204.369 45.804C204.801 45.5114 205.303 45.3651 205.874 45.3651C206.311 45.3651 206.707 45.4503 207.062 45.6207C207.418 45.7884 207.71 46.0256 207.94 46.3324C208.173 46.6364 208.32 46.9915 208.379 47.3977H207.612C207.533 47.0284 207.341 46.7131 207.037 46.4517C206.736 46.1875 206.352 46.0554 205.886 46.0554C205.469 46.0554 205.099 46.169 204.778 46.3963C204.457 46.6207 204.206 46.9347 204.024 47.3381C203.845 47.7386 203.756 48.2031 203.756 48.7315C203.756 49.2628 203.844 49.733 204.02 50.142C204.196 50.5483 204.443 50.8665 204.761 51.0966C205.082 51.3267 205.457 51.4418 205.886 51.4418C206.176 51.4418 206.44 51.3878 206.679 51.2798C206.92 51.169 207.122 51.0128 207.284 50.8111C207.449 50.6094 207.56 50.3693 207.616 50.0909H208.384C208.327 50.4858 208.186 50.8381 207.962 51.1477C207.74 51.4545 207.452 51.696 207.097 51.8722C206.744 52.0483 206.341 52.1364 205.886 52.1364ZM212.566 52.1364C211.981 52.1364 211.471 51.9901 211.036 51.6974C210.604 51.4048 210.269 51.0043 210.031 50.4957C209.792 49.9872 209.673 49.4077 209.673 48.7571C209.673 48.1009 209.793 47.517 210.035 47.0057C210.279 46.4943 210.617 46.0937 211.049 45.804C211.481 45.5114 211.982 45.3651 212.553 45.3651C212.991 45.3651 213.387 45.4503 213.742 45.6207C214.097 45.7884 214.39 46.0256 214.62 46.3324C214.853 46.6364 214.999 46.9915 215.059 47.3977H214.292C214.212 47.0284 214.021 46.7131 213.717 46.4517C213.415 46.1875 213.032 46.0554 212.566 46.0554C212.148 46.0554 211.779 46.169 211.458 46.3963C211.137 46.6207 210.886 46.9347 210.704 47.3381C210.525 47.7386 210.435 48.2031 210.435 48.7315C210.435 49.2628 210.523 49.733 210.7 50.142C210.876 50.5483 211.123 50.8665 211.441 51.0966C211.762 51.3267 212.137 51.4418 212.566 51.4418C212.856 51.4418 213.12 51.3878 213.359 51.2798C213.6 51.169 213.802 51.0128 213.964 50.8111C214.129 50.6094 214.239 50.3693 214.296 50.0909H215.063C215.006 50.4858 214.866 50.8381 214.641 51.1477C214.42 51.4545 214.131 51.696 213.776 51.8722C213.424 52.0483 213.021 52.1364 212.566 52.1364ZM217.447 50.9219L220.903 45.4545H221.811V52H221.053V46.5327L217.609 52H216.689V45.4545H217.447V50.9219ZM224.572 50.9219L228.028 45.4545H228.936V52H228.178V46.5327L224.734 52H223.814V45.4545H224.572V50.9219Z" fill="black"/>
</svg>
